<?xml version="1.0" encoding="UTF-8"?>
<svg xmlns="http://www.w3.org/2000/svg" xmlns:xlink="http://www.w3.org/1999/xlink" viewBox="0 0 480 480" width="480px" height="480px">
<g id="surface123011602">
<path style=" stroke:none;fill-rule:nonzero;fill:rgb(74.117649%,74.117649%,74.117649%);fill-opacity:1;" d="M 440 250 C 440 360.457031 350.457031 450 240 450 C 129.542969 450 40 360.457031 40 250 C 40 139.542969 129.542969 50 240 50 C 350.457031 50 440 139.542969 440 250 Z M 440 250 "/>
<path style=" stroke:none;fill-rule:nonzero;fill:rgb(92.54902%,93.725491%,94.509804%);fill-opacity:1;" d="M 440 240 C 440 350.457031 350.457031 440 240 440 C 129.542969 440 40 350.457031 40 240 C 40 129.542969 129.542969 40 240 40 C 350.457031 40 440 129.542969 440 240 Z M 440 240 "/>
<path style=" stroke:none;fill-rule:nonzero;fill:rgb(38.039216%,38.039216%,38.039216%);fill-opacity:1;" d="M 170.308594 141.308594 L 170.5 145.859375 C 173.550781 142.320312 177.660156 140.550781 182.839844 140.550781 C 188.660156 140.550781 192.621094 142.75 194.730469 147.148438 C 196.109375 145.179688 197.910156 143.589844 200.128906 142.371094 C 202.351562 141.148438 204.980469 140.550781 208 140.550781 C 217.121094 140.550781 221.769531 145.320312 221.917969 154.839844 L 221.917969 182.320312 L 214.800781 182.320312 L 214.800781 155.25 C 214.800781 152.320312 214.128906 150.128906 212.769531 148.667969 C 211.410156 147.21875 209.128906 146.488281 205.917969 146.488281 C 203.28125 146.488281 201.089844 147.269531 199.339844 148.820312 C 197.601562 150.378906 196.578125 152.46875 196.308594 155.089844 L 196.308594 182.308594 L 189.160156 182.308594 L 189.160156 155.441406 C 189.160156 149.480469 186.199219 146.488281 180.28125 146.488281 C 175.609375 146.488281 172.417969 148.449219 170.699219 152.359375 L 170.699219 182.308594 L 163.589844 182.308594 L 163.589844 141.289062 L 170.308594 141.289062 Z M 267.070312 172.738281 L 267.070312 153.859375 C 266.96875 149.710938 265.460938 146.460938 262.578125 144.101562 C 259.699219 141.738281 255.699219 140.558594 250.601562 140.558594 C 247.390625 140.558594 244.441406 141.121094 241.75 142.230469 C 239.058594 143.339844 236.941406 144.851562 235.378906 146.761719 C 233.808594 148.667969 233.03125 150.648438 233.03125 152.691406 L 240.628906 152.691406 C 240.628906 150.898438 241.539062 149.371094 243.371094 148.109375 C 245.199219 146.851562 247.460938 146.21875 250.160156 146.21875 C 253.238281 146.21875 255.558594 146.949219 257.148438 148.398438 C 258.730469 149.859375 259.519531 151.808594 259.519531 154.261719 L 259.519531 157.480469 L 252.160156 157.480469 C 245.820312 157.480469 240.890625 158.660156 237.390625 161.019531 C 233.890625 163.378906 232.140625 166.699219 232.140625 170.96875 C 232.140625 174.488281 233.53125 177.378906 236.328125 179.667969 C 239.121094 181.960938 242.699219 183.101562 247.050781 183.101562 C 251.929688 183.101562 256.128906 181.410156 259.640625 178.019531 C 259.910156 180.089844 260.269531 181.53125 260.699219 182.339844 L 268.628906 182.339844 L 268.628906 181.730469 C 267.589844 179.5 267.070312 176.511719 267.070312 172.738281 Z M 259.511719 170.851562 C 258.550781 172.667969 257.019531 174.148438 254.878906 175.28125 C 252.761719 176.417969 250.511719 176.980469 248.140625 176.980469 C 245.660156 176.980469 243.628906 176.359375 242.050781 175.121094 C 240.460938 173.878906 239.679688 172.167969 239.679688 169.960938 C 239.679688 164.929688 244.308594 162.417969 253.578125 162.417969 L 259.511719 162.417969 Z M 295.738281 177.359375 C 298.351562 177.359375 300.621094 176.601562 302.578125 175.078125 C 304.53125 173.570312 305.609375 171.667969 305.820312 169.398438 L 312.730469 169.398438 C 312.601562 171.75 311.75 173.980469 310.199219 176.109375 C 308.648438 178.238281 306.578125 179.917969 303.980469 181.191406 C 301.378906 182.460938 298.640625 183.078125 295.738281 183.078125 C 289.917969 183.078125 285.289062 181.21875 281.839844 177.488281 C 278.398438 173.761719 276.679688 168.667969 276.679688 162.199219 L 276.679688 161.019531 C 276.679688 157.03125 277.449219 153.480469 278.96875 150.371094 C 280.5 147.261719 282.691406 144.851562 285.550781 143.128906 C 288.410156 141.410156 291.789062 140.550781 295.691406 140.550781 C 300.480469 140.550781 304.46875 141.929688 307.640625 144.679688 C 310.808594 147.429688 312.511719 151.011719 312.71875 155.410156 L 305.808594 155.410156 C 305.601562 152.761719 304.550781 150.578125 302.667969 148.871094 C 300.789062 147.160156 298.460938 146.308594 295.699219 146.308594 C 291.988281 146.308594 289.109375 147.589844 287.070312 150.160156 C 285.03125 152.730469 284 156.441406 284 161.300781 L 284 162.621094 C 284 167.351562 285.019531 170.980469 287.050781 173.539062 C 289.070312 176.089844 291.96875 177.359375 295.738281 177.359375 Z M 241.058594 278.941406 C 241.058594 291.46875 238.628906 302.410156 233.761719 311.75 C 228.890625 321.089844 221.988281 328.210938 213.078125 333.140625 C 204.148438 338.058594 193.75 340.519531 181.851562 340.519531 C 170.230469 340.519531 159.917969 338.050781 150.917969 333.101562 C 141.941406 328.148438 134.949219 321.089844 129.988281 311.929688 C 125.019531 302.761719 122.460938 292.140625 122.339844 280.078125 L 122.339844 270.851562 C 122.339844 258.558594 124.800781 247.691406 129.730469 238.261719 C 134.667969 228.828125 141.640625 221.609375 150.667969 216.609375 C 159.691406 211.601562 170.019531 209.101562 181.640625 209.101562 C 193.46875 209.101562 203.898438 211.578125 212.917969 216.53125 C 221.949219 221.480469 228.890625 228.648438 233.761719 238.050781 C 238.628906 247.449219 241.058594 258.390625 241.058594 270.859375 Z M 222.390625 270.789062 C 222.390625 255.621094 218.179688 245.148438 211.148438 237.039062 C 204.121094 228.929688 194.28125 224.871094 181.640625 224.871094 C 169.328125 224.871094 159.648438 228.929688 152.601562 237.039062 C 145.53125 245.148438 141.210938 255.988281 141.011719 270.390625 L 141.011719 279.789062 C 141.011719 294.488281 145.261719 303.628906 152.398438 312.03125 C 159.519531 320.429688 169.339844 324.640625 181.851562 324.640625 C 194.429688 324.640625 204.148438 320.667969 211.050781 312.738281 C 217.949219 304.800781 222.191406 295.101562 222.390625 280.28125 Z M 305.371094 264.960938 C 294.191406 261.960938 276.167969 260.167969 276.167969 243.660156 C 276.167969 237.148438 282.070312 224.480469 302.917969 224.480469 C 325.949219 224.480469 330.601562 238.960938 331.058594 245.660156 L 348.929688 245.660156 C 348.558594 239.417969 348.011719 233.601562 344.449219 228.25 C 340.480469 222.28125 334.871094 217.601562 327.640625 214.199219 C 320.398438 210.800781 312.160156 209.101562 302.917969 209.101562 C 272.96875 209.101562 257.96875 226.601562 257.96875 244.058594 C 257.96875 252.960938 260.609375 262.570312 267.539062 268.628906 C 274.460938 274.691406 285.128906 277.800781 300.800781 281.75 C 313.339844 284.910156 332.851562 288.101562 332.851562 306.441406 C 332.851562 312.699219 323.230469 325.28125 303.839844 325.28125 C 280.148438 325.28125 272.929688 310.300781 272.5 303.417969 L 254.621094 303.417969 C 254.941406 310.148438 258.929688 340.519531 303.839844 340.519531 C 342.699219 340.519531 351.320312 314.738281 351.320312 304.378906 C 351.328125 270.550781 316.550781 267.949219 305.371094 264.960938 Z M 305.371094 264.960938 "/>
</g>
</svg>
