<?xml version="1.0" encoding="UTF-8"?>
<svg version="1.1" xmlns="http://www.w3.org/2000/svg" width="300" height="300">
<path d="M0 0 C1.06114014 0.00572021 2.12228027 0.01144043 3.21557617 0.01733398 C11.54698608 0.2069018 17.9022903 1.36691329 25.25 5.5 C26.7040625 6.29664062 26.7040625 6.29664062 28.1875 7.109375 C38.93677772 13.47715365 46.95024491 22.13935478 52.25 33.5 C52.26985014 35.49990149 52.27191649 37.50012009 52.25 39.5 C52.7361377 40.10972656 53.22227539 40.71945313 53.72314453 41.34765625 C55.61814164 44.01895374 55.63649944 45.54020365 55.6484375 48.7890625 C55.65230469 49.81386719 55.65617187 50.83867188 55.66015625 51.89453125 C55.64855469 52.96058594 55.63695312 54.02664062 55.625 55.125 C55.63660156 56.16785156 55.64820313 57.21070313 55.66015625 58.28515625 C55.62694737 67.15192727 54.20065951 75.10991034 49.375 82.6875 C48.59769531 83.91146484 48.59769531 83.91146484 47.8046875 85.16015625 C47.29164063 85.93230469 46.77859375 86.70445312 46.25 87.5 C45.77820313 88.22058594 45.30640625 88.94117188 44.8203125 89.68359375 C43.69646248 91.33611878 42.48167288 92.92619577 41.25 94.5 C40.59 94.5 39.93 94.5 39.25 94.5 C39.25 95.16 39.25 95.82 39.25 96.5 C26.40357557 107.75615139 12.74475301 112.00785125 -4.06640625 111.75390625 C-12.19749806 111.19343863 -20.71054595 108.7082011 -27.75 104.5 C-28.41 103.51 -29.07 102.52 -29.75 101.5 C-29.42 101.17 -29.09 100.84 -28.75 100.5 C-29.29527344 100.32726562 -29.84054688 100.15453125 -30.40234375 99.9765625 C-38.25809954 97.04911846 -43.80092327 91.62109514 -47.98046875 84.36328125 C-49.01193065 82.05338769 -49.75 80.04803126 -49.75 77.5 C-50.20375 77.0875 -50.6575 76.675 -51.125 76.25 C-56.06638691 70.9285064 -55.08237853 63.01665273 -55.0625 56.25 C-55.07861328 55.16847656 -55.09472656 54.08695313 -55.11132812 52.97265625 C-55.11706907 43.45416646 -53.34294535 35.66110528 -48.5625 27.375 C-48.03269531 26.44429687 -47.50289063 25.51359375 -46.95703125 24.5546875 C-46.55871094 23.87664062 -46.16039063 23.19859375 -45.75 22.5 C-45.09 22.5 -44.43 22.5 -43.75 22.5 C-43.47671875 21.90703125 -43.2034375 21.3140625 -42.921875 20.703125 C-37.57461695 10.65027986 -24.73393899 4.378513 -14.23583984 1.07128906 C-9.51977865 -0.0125435 -4.82031571 -0.0301389 0 0 Z " fill="#F0F5F8" transform="translate(151.75,71.5)"/>
<path d="M0 0 C1.06114014 0.00572021 2.12228027 0.01144043 3.21557617 0.01733398 C11.54698608 0.2069018 17.9022903 1.36691329 25.25 5.5 C26.7040625 6.29664062 26.7040625 6.29664062 28.1875 7.109375 C36.80977695 12.21713689 45.1342954 19.1092374 49.25 28.5 C49.5625 32 49.5625 32 49.25 34.5 C48.26 34.5 47.27 34.5 46.25 34.5 C46.25 33.84 46.25 33.18 46.25 32.5 C38.33 32.17 30.41 31.84 22.25 31.5 C22.25 32.16 22.25 32.82 22.25 33.5 C21.60933594 33.71914062 20.96867187 33.93828125 20.30859375 34.1640625 C13.14988924 36.7885652 7.53229413 39.5696835 3.60546875 46.33203125 C1.68388624 49.59327912 0.12743316 52.02064782 -2.75 54.5 C-7.97762773 55.84782054 -13.45745164 55.13587656 -18.75 54.5 C-18.75 55.16 -18.75 55.82 -18.75 56.5 C-14.13 56.5 -9.51 56.5 -4.75 56.5 C-4.75 57.49 -4.75 58.48 -4.75 59.5 C-5.41 59.5 -6.07 59.5 -6.75 59.5 C-6.75 60.16 -6.75 60.82 -6.75 61.5 C-7.41 61.5 -8.07 61.5 -8.75 61.5 C-9.059375 62.28375 -9.36875 63.0675 -9.6875 63.875 C-10.75 66.5 -10.75 66.5 -11.75 68.5 C-12.41 68.5 -13.07 68.5 -13.75 68.5 C-14.00394531 69.09683594 -14.25789063 69.69367188 -14.51953125 70.30859375 C-17.66998534 75.91940247 -24.8001299 79.71503897 -30.75 81.5 C-35.87599802 81.86042174 -40.8417196 82.13609347 -45.75 80.5 C-45.75 79.84 -45.75 79.18 -45.75 78.5 C-46.678125 78.335 -47.60625 78.17 -48.5625 78 C-51.75 76.5 -51.75 76.5 -53.42578125 73.1796875 C-55.33259445 67.58034527 -55.18789664 61.98137602 -55.125 56.125 C-55.13660156 55.0525 -55.14820312 53.98 -55.16015625 52.875 C-55.12564941 43.42012634 -53.30994277 35.60390079 -48.5625 27.375 C-48.03269531 26.44429687 -47.50289063 25.51359375 -46.95703125 24.5546875 C-46.55871094 23.87664062 -46.16039063 23.19859375 -45.75 22.5 C-45.09 22.5 -44.43 22.5 -43.75 22.5 C-43.47671875 21.90703125 -43.2034375 21.3140625 -42.921875 20.703125 C-37.57461695 10.65027986 -24.73393899 4.378513 -14.23583984 1.07128906 C-9.51977865 -0.0125435 -4.82031571 -0.0301389 0 0 Z " fill="#036EB6" transform="translate(151.75,71.5)"/>
<path d="M0 0 C3.05879461 4.58819191 2.32869006 9.16473558 2.3125 14.5625 C2.32861328 15.60986328 2.34472656 16.65722656 2.36132812 17.73632812 C2.36686337 26.64253045 0.97351597 34.57401952 -3.875 42.1875 C-4.39320313 43.00347656 -4.91140625 43.81945312 -5.4453125 44.66015625 C-6.21488281 45.81837891 -6.21488281 45.81837891 -7 47 C-7.47179687 47.72058594 -7.94359375 48.44117188 -8.4296875 49.18359375 C-9.55353752 50.83611878 -10.76832712 52.42619577 -12 54 C-12.66 54 -13.32 54 -14 54 C-14 54.66 -14 55.32 -14 56 C-26.83829978 67.24903249 -40.49467085 71.50900044 -57.296875 71.25390625 C-65.15019592 70.71544015 -70.37222504 69.62777496 -76 64 C-70.39 64 -64.78 64 -59 64 C-59 63.34 -59 62.68 -59 62 C-57.56445975 61.49440092 -56.1264798 60.9957251 -54.6875 60.5 C-53.88699219 60.2215625 -53.08648437 59.943125 -52.26171875 59.65625 C-50 59 -50 59 -47 59 C-47 58.34 -47 57.68 -47 57 C-46.29875 56.608125 -45.5975 56.21625 -44.875 55.8125 C-40.69844281 53.17945308 -37.22289571 49.44579143 -35 45 C-34.17757812 45.13019531 -33.35515625 45.26039063 -32.5078125 45.39453125 C-24.32944346 46.40502257 -18.75892755 45.9357101 -12 41 C-9.56098872 38.3743391 -9.56098872 38.3743391 -8 36 C-7.34 36 -6.68 36 -6 36 C-4.99948405 29.99690429 -4.03993777 23.88018669 -6 18 C-6.66 18 -7.32 18 -8 18 C-8 17.34 -8 16.68 -8 16 C-11.75479132 15.14705225 -15.33011494 14.81620293 -19.17578125 14.68359375 C-20.33271484 14.64169922 -21.48964844 14.59980469 -22.68164062 14.55664062 C-23.87982422 14.51732422 -25.07800781 14.47800781 -26.3125 14.4375 C-27.53001953 14.39431641 -28.74753906 14.35113281 -30.00195312 14.30664062 C-33.0011947 14.20078504 -36.00051591 14.09870274 -39 14 C-39 13.01 -39 12.02 -39 11 C-38.34 11 -37.68 11 -37 11 C-36.34 9.35 -35.68 7.7 -35 6 C-34.34 6 -33.68 6 -33 6 C-32.67 5.01 -32.34 4.02 -32 3 C-22.23749696 -6.35771633 -11.2401565 -7.29479992 0 0 Z " fill="#1F1D6F" transform="translate(205,112)"/>
<path d="M0 0 C1.06734375 -0.02900391 2.1346875 -0.05800781 3.234375 -0.08789062 C4.25789063 -0.09626953 5.28140625 -0.10464844 6.3359375 -0.11328125 C7.27743652 -0.12786377 8.21893555 -0.14244629 9.18896484 -0.1574707 C11.625 0.3125 11.625 0.3125 13.43212891 2.12426758 C15.18316891 5.33641895 15.0040943 7.71110414 14.625 11.3125 C13.375 14.1875 13.375 14.1875 11.625 16.3125 C9.4375 17.125 9.4375 17.125 7.625 17.3125 C7.625 17.9725 7.625 18.6325 7.625 19.3125 C0.53420967 20.63451176 0.53420967 20.63451176 -3.375 19.25 C-5.375 17.3125 -5.375 17.3125 -5.6875 14.125 C-5.584375 13.196875 -5.48125 12.26875 -5.375 11.3125 C-6.035 11.3125 -6.695 11.3125 -7.375 11.3125 C-7.75591797 12.38564453 -7.75591797 12.38564453 -8.14453125 13.48046875 C-12.05743738 22.4863638 -20.1178094 32.80770626 -28.375 38.3125 C-29.035 38.3125 -29.695 38.3125 -30.375 38.3125 C-30.375 38.9725 -30.375 39.6325 -30.375 40.3125 C-38.21105364 44.23052682 -48.25162461 45.001707 -56.75390625 42.65625 C-62.2940015 39.78085381 -66.47380458 34.56548856 -68.75 28.875 C-68.95625 28.029375 -69.1625 27.18375 -69.375 26.3125 C-67.395 26.6425 -65.415 26.9725 -63.375 27.3125 C-63.375 27.9725 -63.375 28.6325 -63.375 29.3125 C-60.04183723 29.40061914 -56.70897953 29.45326197 -53.375 29.5 C-52.44042969 29.52513672 -51.50585938 29.55027344 -50.54296875 29.57617188 C-40.70119126 29.6794073 -33.74687026 26.85206233 -26.375 20.3125 C-21.27372261 15.29917567 -17.48695413 9.61382433 -13.7578125 3.53515625 C-10.6435272 -1.47057351 -5.48148966 0.04929397 0 0 Z " fill="#15468D" transform="translate(174.375,127.6875)"/>
<path d="M0 0 C2.31 0.33 4.62 0.66 7 1 C7 1.99 7 2.98 7 4 C8.3921875 3.8453125 8.3921875 3.8453125 9.8125 3.6875 C13 4 13 4 15.125 6 C16.14962694 9.51300666 15.76468848 10.15251028 14.1875 13.3125 C13.47867881 14.55351057 12.75556504 15.78688163 12 17 C11.34 17 10.68 17 10 17 C10 17.66 10 18.32 10 19 C11.31708854 19.65854427 12.65091274 20.28477432 14 20.875 C16 22 16 22 18 25 C17.505 25.495 17.505 25.495 17 26 C16.70564343 27.60001738 16.43929695 29.20523534 16.1875 30.8125 C15.54496707 34.13463321 15.08881939 35.87269221 13.125 38.6875 C11 40 11 40 9 39.75 C8.34 39.5025 7.68 39.255 7 39 C5.68 39 4.36 39 3 39 C1.68 39 0.36 39 -1 39 C-3.00401011 39.30830925 -5.00511766 39.63729412 -7 40 C-7 39.01 -7 38.02 -7 37 C-7.495 37.495 -7.99 37.99 -8.5 38.5 C-11 40 -11 40 -19 40 C-19 32.08 -19 24.16 -19 16 C-20.32 15.67 -21.64 15.34 -23 15 C-23 13.68 -23 12.36 -23 11 C-22.01 10.67 -21.02 10.34 -20 10 C-19.67 7.03 -19.34 4.06 -19 1 C-13.25 0.875 -13.25 0.875 -11 2 C-11.33 3.98 -11.66 5.96 -12 8 C-9.83333333 7.16666667 -9.83333333 7.16666667 -9 5 C-7.865625 4.87625 -6.73125 4.7525 -5.5625 4.625 C-3.7990625 4.315625 -3.7990625 4.315625 -2 4 C-0.48705712 2.06402968 -0.48705712 2.06402968 0 0 Z M0 14 C-2.0399719 15.36323743 -2.0399719 15.36323743 -4 17 C-4 17.66 -4 18.32 -4 19 C-1.09451118 21.04169485 0.40142046 22 4 22 C4.33425735 19.62625139 4.33425735 19.62625139 4 17 C2.0995533 15.15684329 2.0995533 15.15684329 0 14 Z M-12 16 C-13.01111093 19.04913228 -13.01111093 19.04913228 -12 22 C-11.01 21.67 -10.02 21.34 -9 21 C-9.33 19.35 -9.66 17.7 -10 16 C-10.66 16 -11.32 16 -12 16 Z M-12 27 C-12.33 29.31 -12.66 31.62 -13 34 C-10.41222792 30.94419026 -10.41222792 30.94419026 -10 27 C-10.66 27 -11.32 27 -12 27 Z M2 27 C1.67 28.98 1.34 30.96 1 33 C1.66 32.67 2.32 32.34 3 32 C3.65555119 29.47266765 3.65555119 29.47266765 4 27 C3.34 27 2.68 27 2 27 Z M9 27 C8.34 29.31 7.68 31.62 7 34 C7.99 33.67 8.98 33.34 10 33 C10.33 31.02 10.66 29.04 11 27 C10.34 27 9.68 27 9 27 Z M-5 28 C-5.33 29.98 -5.66 31.96 -6 34 C-5.34 33.67 -4.68 33.34 -4 33 C-4 31.35 -4 29.7 -4 28 C-4.33 28 -4.66 28 -5 28 Z " fill="#3F3C3B" transform="translate(199,198)"/>
<path d="M0 0 C0.33 0.99 0.66 1.98 1 3 C1.99 2.505 2.98 2.01 4 1.5 C10.82381776 -1.39121596 18.11063336 -0.20622154 25 2 C27.5625 3.5 27.5625 3.5 29 5 C29 5.66 29 6.32 29 7 C29.66 7 30.32 7 31 7 C31.28571429 15.57142857 31.28571429 15.57142857 29 19 C28.34 19 27.68 19 27 19 C27 19.66 27 20.32 27 21 C24.24921116 21.91692961 22.64051087 22.10886083 19.8125 22.0625 C17.9253125 22.0315625 17.9253125 22.0315625 16 22 C17 19 17 19 19.0625 17.8125 C21.18345814 16.21219808 21.18345814 16.21219808 21.26171875 14.03125 C21.25109051 12.01896946 21.13167188 10.00799612 21 8 C19.02 7.01 17.04 6.02 15 5 C15 14.24 15 23.48 15 33 C16.65 33.33 18.3 33.66 20 34 C20 34.66 20 35.32 20 36 C14.29309366 36.99250545 8.78591511 37.10477512 3 37 C3 36.01 3 35.02 3 34 C3.99 33.505 3.99 33.505 5 33 C5.33 23.76 5.66 14.52 6 5 C5.01 5 4.02 5 3 5 C2.34 6.98 1.68 8.96 1 11 C-2.16115776 9.63016497 -2.9927092 9.0109362 -5 6 C-8.56769552 5.26393501 -8.56769552 5.26393501 -12 5 C-12 8.63 -12 12.26 -12 16 C-9.69 16 -7.38 16 -5 16 C-4.34 14.68 -3.68 13.36 -3 12 C-0.89366282 13.70828921 -0.06198392 14.52148416 0.29296875 17.26171875 C0.25816406 18.06222656 0.22335938 18.86273438 0.1875 19.6875 C0.16042969 20.49574219 0.13335937 21.30398437 0.10546875 22.13671875 C0.07066406 22.75160156 0.03585938 23.36648437 0 24 C-1.32 24.33 -2.64 24.66 -4 25 C-4.33 23.68 -4.66 22.36 -5 21 C-7.31 21 -9.62 21 -12 21 C-12 24.96 -12 28.92 -12 33 C-10.68 33.33 -9.36 33.66 -8 34 C-7.67 34.66 -7.34 35.32 -7 36 C-10.06533164 37.53266582 -13.26754272 37.10276471 -16.625 37.0625 C-17.33140625 37.05798828 -18.0378125 37.05347656 -18.765625 37.04882812 C-20.51045275 37.03703875 -22.255237 37.01910324 -24 37 C-24 35.68 -24 34.36 -24 33 C-23.01 33 -22.02 33 -21 33 C-21 23.76 -21 14.52 -21 5 C-21.99 4.67 -22.98 4.34 -24 4 C-24 3.01 -24 2.02 -24 1 C-15.97497656 0.20318916 -8.06350113 -0.12867289 0 0 Z " fill="#C0BEBD" transform="translate(143,200)"/>
<path d="M0 0 C3.375 0.75 3.375 0.75 7 2 C8.125 4 8.125 4 9 6 C11.16621868 7.1025173 11.16621868 7.1025173 14 8 C15.60928128 8.69663518 17.2131731 9.40580583 18.8125 10.125 C19.60269531 10.47820312 20.39289063 10.83140625 21.20703125 11.1953125 C21.79871094 11.46085938 22.39039063 11.72640625 23 12 C22.30621489 15.26011642 21.54106009 16.79038253 19 19 C19.99 19.66 20.98 20.32 22 21 C21.505 23.475 21.505 23.475 21 26 C18.03 26.33 15.06 26.66 12 27 C12.763125 27.5775 13.52625 28.155 14.3125 28.75 C16.66200917 30.71703093 18.29323505 32.48476744 20 35 C19.3125 36.9375 19.3125 36.9375 18 39 C15.5625 39.9375 15.5625 39.9375 13 40 C12.42185547 39.23623047 12.42185547 39.23623047 11.83203125 38.45703125 C9.91790122 36.61278186 9.91790122 36.61278186 6.3828125 37.109375 C4.96110247 37.30602274 3.54173873 37.52025858 2.125 37.75 C1.06345703 37.90082031 1.06345703 37.90082031 -0.01953125 38.0546875 C-3.70362654 38.58980749 -7.35826594 39.22880926 -11 40 C-13.1519437 36.77208445 -13.20086443 35.71599191 -13 32 C-12.030625 31.731875 -11.06125 31.46375 -10.0625 31.1875 C-9.051875 30.795625 -8.04125 30.40375 -7 30 C-6.67 29.01 -6.34 28.02 -6 27 C-8.64 26.67 -11.28 26.34 -14 26 C-14.38218767 24.34385343 -14.71395102 22.67542976 -15 21 C-14 20 -14 20 -11.31616211 19.88647461 C-10.14835205 19.89171143 -8.98054199 19.89694824 -7.77734375 19.90234375 C-6.51728516 19.90556641 -5.25722656 19.90878906 -3.95898438 19.91210938 C-2.61848891 19.92046597 -1.27799412 19.92893093 0.0625 19.9375 C1.40689942 19.9425134 2.7513006 19.94707658 4.09570312 19.95117188 C7.39717941 19.96300512 10.69856803 19.97949029 14 20 C14 19.01 14 18.02 14 17 C13.34 16.67 12.68 16.34 12 16 C12 16.66 12 17.32 12 18 C-2.07537012 19.78734859 -2.07537012 19.78734859 -6.75 17.875 C-7.86375 17.441875 -7.86375 17.441875 -9 17 C-9.99 17.66 -10.98 18.32 -12 19 C-14.6875 18.625 -14.6875 18.625 -17 18 C-15.50470604 14.24088109 -13.39594449 12.52051028 -10.1875 10.125 C-6.18415551 7.03124318 -3.02851053 4.03801404 0 0 Z M-0.125 10.5 C-1.07375 11.325 -2.0225 12.15 -3 13 C-0.21176345 14.0326802 0.8677274 14.04509293 3.75 13.0625 C4.4925 12.711875 5.235 12.36125 6 12 C5.67 10.68 5.34 9.36 5 8 C2.41073669 8 1.79948339 8.82653618 -0.125 10.5 Z M3 26 C1.22590192 27.92022703 1.22590192 27.92022703 0 30 C0.33 30.66 0.66 31.32 1 32 C4.465 31.505 4.465 31.505 8 31 C7.67 29.35 7.34 27.7 7 26 C5.68 26 4.36 26 3 26 Z " fill="#999795" transform="translate(233,198)"/>
<path d="M0 0 C1.84765625 0.33984375 1.84765625 0.33984375 4.0625 0.9375 C4.79597656 1.13214844 5.52945313 1.32679688 6.28515625 1.52734375 C7.13400391 1.76130859 7.13400391 1.76130859 8 2 C7.49396008 4.16874252 7.00016187 5.99967627 6 8 C10.05606165 7.53199289 13.46588679 7.12046792 17 5 C19.475 6.98 19.475 6.98 22 9 C21.67 10.32 21.34 11.64 21 13 C17.37 13.33 13.74 13.66 10 14 C10 14.66 10 15.32 10 16 C10.66 16 11.32 16 12 16 C14.5 18.5 14.5 18.5 17 21 C18.0725 21.70125 19.145 22.4025 20.25 23.125 C23 25 23 25 24 28 C18.69499657 32.0712817 18.69499657 32.0712817 15.5625 31.75 C14.716875 31.5025 13.87125 31.255 13 31 C10.66698014 30.96175377 8.33288492 30.95425716 6 31 C6 33.97 6 36.94 6 40 C4.02 40 2.04 40 0 40 C0 37.03 0 34.06 0 31 C-1.0725 31 -2.145 31 -3.25 31 C-5.83333333 31 -8.41666667 31 -11 31 C-13.01495907 31.61998741 -15.0187415 32.27954236 -17 33 C-17.33 31.68 -17.66 30.36 -18 29 C-16.96875 28.195625 -15.9375 27.39125 -14.875 26.5625 C-10.59849203 22.93051665 -7.9490348 18.74722675 -5 14 C-8.63 13.67 -12.26 13.34 -16 13 C-16 11.35 -16 9.7 -16 8 C-11.05 8 -6.1 8 -1 8 C-1 5.69 -1 3.38 -1 1 C-0.67 0.67 -0.34 0.34 0 0 Z M6 19 C6 20.98 6 22.96 6 25 C6.99 24.67 7.98 24.34 9 24 C8.34 22.35 7.68 20.7 7 19 C6.67 19 6.34 19 6 19 Z M-1 20 C-2.36176581 21.98075027 -3.69593116 23.98079663 -5 26 C-3.35 26 -1.7 26 0 26 C0 24.02 0 22.04 0 20 C-0.33 20 -0.66 20 -1 20 Z " fill="#494643" transform="translate(94,198)"/>
<path d="M0 0 C1.32 0.33 2.64 0.66 4 1 C6.69868022 1.09469053 9.36496692 1.13956814 12.0625 1.125 C12.78244141 1.12886719 13.50238281 1.13273438 14.24414062 1.13671875 C17.42708639 1.13080799 19.95947862 1.01350713 23 0 C25.6875 1.8125 25.6875 1.8125 28 4 C28 4.66 28 5.32 28 6 C27.34 6 26.68 6 26 6 C26 16.23 26 26.46 26 37 C23.03 37.495 23.03 37.495 20 38 C19.67 37.01 19.34 36.02 19 35 C14.71 35 10.42 35 6 35 C5.67 35.99 5.34 36.98 5 38 C3.35 38 1.7 38 0 38 C0 25.46 0 12.92 0 0 Z M6 7 C6 9.64 6 12.28 6 15 C10.29 15 14.58 15 19 15 C19 12.36 19 9.72 19 7 C14.71 7 10.42 7 6 7 Z M6 21 C6 23.97 6 26.94 6 30 C10.29 30 14.58 30 19 30 C19 27.03 19 24.06 19 21 C14.71 21 10.42 21 6 21 Z " fill="#807E7D" transform="translate(48,200)"/>
<path d="M0 0 C2.0390625 1.58203125 2.0390625 1.58203125 2.81640625 3.671875 C3.13014004 7.77243068 3.22338002 11.84527213 3.2265625 15.95703125 C3.23880859 16.78203125 3.25105469 17.60703125 3.26367188 18.45703125 C3.27948257 25.09752256 2.33487636 30.69664935 -0.9609375 36.58203125 C-2.29093097 33.9220443 -2.2597578 31.60833934 -2.4609375 28.64453125 C-2.6850021 25.35158187 -2.91481444 22.72040043 -3.9609375 19.58203125 C-4.6209375 19.58203125 -5.2809375 19.58203125 -5.9609375 19.58203125 C-5.9609375 18.92203125 -5.9609375 18.26203125 -5.9609375 17.58203125 C-9.71572882 16.7290835 -13.29105244 16.39823418 -17.13671875 16.265625 C-18.29365234 16.22373047 -19.45058594 16.18183594 -20.64257812 16.13867188 C-21.84076172 16.09935547 -23.03894531 16.06003906 -24.2734375 16.01953125 C-25.49095703 15.97634766 -26.70847656 15.93316406 -27.96289062 15.88867188 C-30.9621322 15.78281629 -33.96145341 15.68073399 -36.9609375 15.58203125 C-36.9609375 14.59203125 -36.9609375 13.60203125 -36.9609375 12.58203125 C-36.3009375 12.58203125 -35.6409375 12.58203125 -34.9609375 12.58203125 C-34.3009375 10.93203125 -33.6409375 9.28203125 -32.9609375 7.58203125 C-32.3009375 7.58203125 -31.6409375 7.58203125 -30.9609375 7.58203125 C-30.6309375 6.59203125 -30.3009375 5.60203125 -29.9609375 4.58203125 C-20.83789607 -4.16273773 -11.18805166 -5.32361975 0 0 Z " fill="#1C2A7A" transform="translate(202.9609375,110.41796875)"/>
<path d="M0 0 C5.99003825 5.13725408 12.58019525 11.29818683 13.3125 19.5 C13.209375 20.325 13.10625 21.15 13 22 C12.01 22 11.02 22 10 22 C10 21.34 10 20.68 10 20 C2.08 19.67 -5.84 19.34 -14 19 C-14 19.66 -14 20.32 -14 21 C-14.94359375 21.32871094 -14.94359375 21.32871094 -15.90625 21.6640625 C-22.08585663 23.95349508 -26.95291375 26.77059811 -32 31 C-31.67 29.68 -31.34 28.36 -31 27 C-30.34 27 -29.68 27 -29 27 C-28.67 25.68 -28.34 24.36 -28 23 C-27.34 23 -26.68 23 -26 23 C-26 22.34 -26 21.68 -26 21 C-25.13375 20.5875 -24.2675 20.175 -23.375 19.75 C-20.05508562 18.02856292 -17.00887809 16.22083859 -14 14 C-14 13.34 -14 12.68 -14 12 C-12.68 12.33 -11.36 12.66 -10 13 C-10.33 13.66 -10.66 14.32 -11 15 C-7.04 14.505 -7.04 14.505 -3 14 C-3.2475 13.1028125 -3.2475 13.1028125 -3.5 12.1875 C-4 10 -4 10 -4 7 C-5.04932994 3.64214418 -5.96834033 3.01772942 -9.125 1.25 C-10.07375 0.8375 -11.0225 0.425 -12 0 C-12 -0.99 -12 -1.98 -12 -3 C-17.61 -3.33 -23.22 -3.66 -29 -4 C-29.33 -5.32 -29.66 -6.64 -30 -8 C-32.29199177 -7.85936865 -34.58359186 -7.71234057 -36.875 -7.5625 C-38.15117187 -7.48128906 -39.42734375 -7.40007812 -40.7421875 -7.31640625 C-43.88300152 -7.20793973 -43.88300152 -7.20793973 -46 -6 C-46.66 -6.33 -47.32 -6.66 -48 -7 C-48 -6.34 -48 -5.68 -48 -5 C-51.3 -5 -54.6 -5 -58 -5 C-45.35234844 -17.64765156 -12.12178658 -9.72856066 0 0 Z " fill="#0E458D" transform="translate(188,84)"/>
<path d="M0 0 C1.4375 1.5 1.4375 1.5 1.4375 3.5 C2.0975 3.5 2.7575 3.5 3.4375 3.5 C3.72321429 12.07142857 3.72321429 12.07142857 1.4375 15.5 C0.7775 15.5 0.1175 15.5 -0.5625 15.5 C-0.5625 16.16 -0.5625 16.82 -0.5625 17.5 C-3.31328884 18.41692961 -4.92198913 18.60886083 -7.75 18.5625 C-9.6371875 18.5315625 -9.6371875 18.5315625 -11.5625 18.5 C-10.5625 15.5 -10.5625 15.5 -8.5 14.3125 C-6.37904186 12.71219808 -6.37904186 12.71219808 -6.30078125 10.53125 C-6.31140949 8.51896946 -6.43082812 6.50799612 -6.5625 4.5 C-8.5425 3.51 -10.5225 2.52 -12.5625 1.5 C-12.5625 11.4 -12.5625 21.3 -12.5625 31.5 C-15.5325 31.5 -18.5025 31.5 -21.5625 31.5 C-21.2325 30.51 -20.9025 29.52 -20.5625 28.5 C-20.4791196 26.36205475 -20.45516253 24.22157991 -20.46484375 22.08203125 C-20.46806641 20.82841797 -20.47128906 19.57480469 -20.47460938 18.28320312 C-20.48298828 16.97287109 -20.49136719 15.66253906 -20.5 14.3125 C-20.50501683 12.97721519 -20.50957941 11.64192859 -20.51367188 10.30664062 C-20.52547305 7.03771527 -20.54193703 3.76888009 -20.5625 0.5 C-21.5525 0.5 -22.5425 0.5 -23.5625 0.5 C-23.5625 -0.49 -23.5625 -1.48 -23.5625 -2.5 C-16.21135951 -4.95038016 -6.66444987 -3.90114139 0 0 Z " fill="#676463" transform="translate(170.5625,203.5)"/>
<path d="M0 0 C2.97 0.495 2.97 0.495 6 1 C6 1.66 6 2.32 6 3 C9.31248078 3.02945031 12.62492711 3.04694801 15.9375 3.0625 C16.86369141 3.07087891 17.78988281 3.07925781 18.74414062 3.08789062 C24.58300303 3.10837786 30.20913053 2.75429787 36 2 C36.495 2.99 36.495 2.99 37 4 C36.01 4.33 35.02 4.66 34 5 C36.31 5.66 38.62 6.32 41 7 C41.33 6.34 41.66 5.68 42 5 C42.99 5 43.98 5 45 5 C45 4.34 45 3.68 45 3 C45.66 3 46.32 3 47 3 C46.70100785 6.58790575 46.23013399 7.78166776 43.5625 10.3125 C41 12 41 12 39 12 C39 12.66 39 13.32 39 14 C31.16394636 17.91802682 21.12337539 18.689207 12.62109375 16.34375 C7.0809985 13.46835381 2.90119542 8.25298856 0.625 2.5625 C0.41875 1.716875 0.2125 0.87125 0 0 Z " fill="#1E347F" transform="translate(105,154)"/>
<path d="M0 0 C5.75 -0.125 5.75 -0.125 8 1 C7.67 2.98 7.34 4.96 7 7 C9.16666667 6.16666667 9.16666667 6.16666667 10 4 C12.64860427 3.40644386 15.29197322 3.25790731 18 3 C18 3.66 18 4.32 18 5 C15.69 5 13.38 5 11 5 C11 5.99 11 6.98 11 8 C12.65 8 14.3 8 16 8 C15.4409112 11.24271506 14.5867822 12.93057424 12 15 C11.34 15 10.68 15 10 15 C9.67 16.32 9.34 17.64 9 19 C8.67 18.34 8.34 17.68 8 17 C8.33 16.34 8.66 15.68 9 15 C8.34 15.66 7.68 16.32 7 17 C7 18.32 7 19.64 7 21 C7.99 20.67 8.98 20.34 10 20 C10 20.66 10 21.32 10 22 C9.01 22 8.02 22 7 22 C7 22.66 7 23.32 7 24 C8.32 24 9.64 24 11 24 C10.125 31.75 10.125 31.75 9 34 C9.66 34 10.32 34 11 34 C11.99 31.03 12.98 28.06 14 25 C14.66 25 15.32 25 16 25 C16 27.64 16 30.28 16 33 C14.515 33.495 14.515 33.495 13 34 C13 34.99 13 35.98 13 37 C14.32 37.33 15.64 37.66 17 38 C14.525 38.495 14.525 38.495 12 39 C12 38.01 12 37.02 12 36 C11.505 36.495 11.01 36.99 10.5 37.5 C8 39 8 39 0 39 C0 31.08 0 23.16 0 15 C-1.32 14.67 -2.64 14.34 -4 14 C-4 12.68 -4 11.36 -4 10 C-3.01 9.67 -2.02 9.34 -1 9 C-0.67 6.03 -0.34 3.06 0 0 Z M7 26 C6.67 28.31 6.34 30.62 6 33 C8.58777208 29.94419026 8.58777208 29.94419026 9 26 C8.34 26 7.68 26 7 26 Z M14 27 C13.67 28.98 13.34 30.96 13 33 C13.66 32.67 14.32 32.34 15 32 C15 30.35 15 28.7 15 27 C14.67 27 14.34 27 14 27 Z " fill="#83817F" transform="translate(180,199)"/>
<path d="M0 0 C3.375 0.75 3.375 0.75 7 2 C8.125 4 8.125 4 9 6 C11.16621868 7.1025173 11.16621868 7.1025173 14 8 C15.60928128 8.69663518 17.2131731 9.40580583 18.8125 10.125 C19.60269531 10.47820312 20.39289063 10.83140625 21.20703125 11.1953125 C21.79871094 11.46085938 22.39039063 11.72640625 23 12 C22.125 15.875 22.125 15.875 21 17 C19.47480724 16.91062197 17.95318071 16.75462854 16.4375 16.5625 C15.61121094 16.46066406 14.78492188 16.35882813 13.93359375 16.25390625 C13.29550781 16.17011719 12.65742188 16.08632812 12 16 C12 16.66 12 17.32 12 18 C-2.07537012 19.78734859 -2.07537012 19.78734859 -6.75 17.875 C-7.86375 17.441875 -7.86375 17.441875 -9 17 C-9.99 17.66 -10.98 18.32 -12 19 C-14.6875 18.625 -14.6875 18.625 -17 18 C-15.50470604 14.24088109 -13.39594449 12.52051028 -10.1875 10.125 C-6.18415551 7.03124318 -3.02851053 4.03801404 0 0 Z M-0.125 10.5 C-1.07375 11.325 -2.0225 12.15 -3 13 C-0.21176345 14.0326802 0.8677274 14.04509293 3.75 13.0625 C4.4925 12.711875 5.235 12.36125 6 12 C5.67 10.68 5.34 9.36 5 8 C2.41073669 8 1.79948339 8.82653618 -0.125 10.5 Z " fill="#9C9A99" transform="translate(233,198)"/>
<path d="M0 0 C3.77057547 -0.11597653 7.54069393 -0.18717396 11.3125 -0.25 C12.38435547 -0.28351563 13.45621094 -0.31703125 14.56054688 -0.3515625 C15.58857422 -0.36445312 16.61660156 -0.37734375 17.67578125 -0.390625 C18.62364502 -0.41157227 19.57150879 -0.43251953 20.5480957 -0.45410156 C23 0 23 0 24.80932617 1.80957031 C26.55628625 5.02337508 26.37907943 7.39874544 26 11 C24.75 13.875 24.75 13.875 23 16 C20.8125 16.8125 20.8125 16.8125 19 17 C19 17.66 19 18.32 19 19 C11.73846154 20.35384615 11.73846154 20.35384615 8 18.5625 C7.34 18.046875 6.68 17.53125 6 17 C6.33 15.35 6.66 13.7 7 12 C8.32 12.99 9.64 13.98 11 15 C11 11.7 11 8.4 11 5 C8.03 4.01 5.06 3.02 2 2 C2 2.66 2 3.32 2 4 C1.34 4 0.68 4 0 4 C0 2.68 0 1.36 0 0 Z " fill="#17347F" transform="translate(163,128)"/>
<path d="M0 0 C2.31 0.33 4.62 0.66 7 1 C7 1.99 7 2.98 7 4 C8.3921875 3.8453125 8.3921875 3.8453125 9.8125 3.6875 C13 4 13 4 15.125 6 C16.14962694 9.51300666 15.76468848 10.15251028 14.1875 13.3125 C13.47867881 14.55351057 12.75556504 15.78688163 12 17 C11.34 17 10.68 17 10 17 C10 17.66 10 18.32 10 19 C11.31708854 19.65854427 12.65091274 20.28477432 14 20.875 C16 22 16 22 18 25 C17.67 25.33 17.34 25.66 17 26 C16.70564343 27.60001738 16.43929695 29.20523534 16.1875 30.8125 C15.39863281 35.02179899 14.58013889 37.37456482 11 40 C10.01 39.67 9.02 39.34 8 39 C8.9590625 38.7525 8.9590625 38.7525 9.9375 38.5 C12.16119241 37.218214 12.16119241 37.218214 12.48828125 35.0859375 C12.7275978 33.06424845 12.86893028 31.03158061 13 29 C12.34 29 11.68 29 11 29 C11 28.34 11 27.68 11 27 C10.34 26.67 9.68 26.34 9 26 C10.65 26 12.3 26 14 26 C11.32357511 23.81509993 11.32357511 23.81509993 9 24 C9 22.35 9 20.7 9 19 C8.34 19 7.68 19 7 19 C6.67 20.32 6.34 21.64 6 23 C2.7 23 -0.6 23 -4 23 C-4 21.68 -4 20.36 -4 19 C-3.236875 19.309375 -2.47375 19.61875 -1.6875 19.9375 C0.18789677 20.67893593 2.08684652 21.36228217 4 22 C4 20.35 4 18.7 4 17 C3.01 16.67 2.02 16.34 1 16 C-0.23076923 9.6 -0.23076923 9.6 0.9375 6.5625 C1.288125 6.046875 1.63875 5.53125 2 5 C2.66 5 3.32 5 4 5 C4 4.34 4 3.68 4 3 C2.02 3 0.04 3 -2 3 C-1.34 2.01 -0.68 1.02 0 0 Z " fill="#292725" transform="translate(199,198)"/>
<path d="M0 0 C3.04501518 3.04501518 2.29363761 6.05467491 2.32226562 10.21875 C2.31904297 11.3015625 2.31582031 12.384375 2.3125 13.5 C2.32861328 14.551875 2.34472656 15.60375 2.36132812 16.6875 C2.36685187 25.61387238 0.98498232 33.55601425 -3.875 41.1875 C-4.39320313 42.00347656 -4.91140625 42.81945312 -5.4453125 43.66015625 C-6.21488281 44.81837891 -6.21488281 44.81837891 -7 46 C-7.47179687 46.72058594 -7.94359375 47.44117188 -8.4296875 48.18359375 C-9.55353752 49.83611878 -10.76832712 51.42619577 -12 53 C-12.66 53 -13.32 53 -14 53 C-14 53.66 -14 54.32 -14 55 C-15.62626404 56.38232443 -17.2925002 57.71937515 -19 59 C-19.66 58.67 -20.32 58.34 -21 58 C-18.25 53.125 -18.25 53.125 -16 52 C-16.33 50.68 -16.66 49.36 -17 48 C-17.54140625 48.17402344 -18.0828125 48.34804687 -18.640625 48.52734375 C-21.48751809 49.09766505 -23.86718522 48.87137301 -26.75 48.5625 C-27.73484375 48.46066406 -28.7196875 48.35882813 -29.734375 48.25390625 C-30.48203125 48.17011719 -31.2296875 48.08632812 -32 48 C-32.33 48.66 -32.66 49.32 -33 50 C-34.32 49.34 -35.64 48.68 -37 48 C-36.34 46.68 -35.68 45.36 -35 44 C-34.17757812 44.13019531 -33.35515625 44.26039063 -32.5078125 44.39453125 C-24.32944346 45.40502257 -18.75892755 44.9357101 -12 40 C-9.56098872 37.3743391 -9.56098872 37.3743391 -8 35 C-7.34 35 -6.68 35 -6 35 C-5.67 32.69 -5.34 30.38 -5 28 C-4.34 29.32 -3.68 30.64 -3 32 C-0.01202292 24.89555394 0.37557691 18.58113832 0.1875 10.9375 C0.17396484 9.88111328 0.16042969 8.82472656 0.14648438 7.73632812 C0.1114709 5.15700191 0.06236675 2.57878506 0 0 Z " fill="#46437E" transform="translate(205,113)"/>
<path d="M0 0 C1.01191406 -0.01998047 2.02382812 -0.03996094 3.06640625 -0.06054688 C10.44996607 -0.05581988 16.36707694 1.50351146 23.125 4.4375 C19.85113547 5.52878818 19.13605614 5.3423048 15.9375 4.5 C4.65612511 2.08256252 -7.68003098 2.91909153 -18.875 5.4375 C-19.205 5.7675 -19.535 6.0975 -19.875 6.4375 C-18.555 6.7675 -17.235 7.0975 -15.875 7.4375 C-16.9475 7.870625 -18.02 8.30375 -19.125 8.75 C-22.07079521 10.00828378 -24.31926668 11.5013384 -26.875 13.4375 C-30.777048 15.6035017 -34.49610754 17.47961727 -38.875 18.4375 C-38.875 19.0975 -38.875 19.7575 -38.875 20.4375 C-39.535 20.4375 -40.195 20.4375 -40.875 20.4375 C-41.205 22.0875 -41.535 23.7375 -41.875 25.4375 C-42.865 25.7675 -43.855 26.0975 -44.875 26.4375 C-45.205 27.4275 -45.535 28.4175 -45.875 29.4375 C-46.555625 30.0871875 -46.555625 30.0871875 -47.25 30.75 C-49.44049585 33.02474569 -50.54801478 35.59396023 -51.875 38.4375 C-52.205 37.7775 -52.535 37.1175 -52.875 36.4375 C-51.94921875 34.1953125 -51.94921875 34.1953125 -50.5625 31.5625 C-50.11261719 30.69882813 -49.66273437 29.83515625 -49.19921875 28.9453125 C-48.76222656 28.11773437 -48.32523437 27.29015625 -47.875 26.4375 C-47.20474912 25.1059648 -46.53669158 23.7733093 -45.875 22.4375 C-45.215 22.4375 -44.555 22.4375 -43.875 22.4375 C-43.60171875 21.84453125 -43.3284375 21.2515625 -43.046875 20.640625 C-37.70302187 10.59418111 -24.86186324 4.31339823 -14.36962891 1.00439453 C-9.60764812 -0.07774673 -4.86241786 -0.03380948 0 0 Z " fill="#2E78AE" transform="translate(151.875,71.5625)"/>
<path d="M0 0 C7.26 0 14.52 0 22 0 C22 2.31 22 4.62 22 7 C21.566875 6.360625 21.13375 5.72125 20.6875 5.0625 C16.44973528 1.81026196 12.27139065 2.2510186 7 2 C7 6.62 7 11.24 7 16 C9.31 16 11.62 16 14 16 C14 16.33 14 16.66 14 17 C12.02 17 10.04 17 8 17 C8.14109986 19.10448938 8.28804175 21.2085877 8.4375 23.3125 C8.51871094 24.48425781 8.59992188 25.65601563 8.68359375 26.86328125 C8.8867371 30.02590958 8.8867371 30.02590958 10 33 C4.555 33.495 4.555 33.495 -1 34 C-1 33.34 -1 32.68 -1 32 C-0.01 32 0.98 32 2 32 C2 22.1 2 12.2 2 2 C1.34 2 0.68 2 0 2 C0 1.34 0 0.68 0 0 Z " fill="#120E0C" transform="translate(121,202)"/>
<path d="M0 0 C0.66 0 1.32 0 2 0 C1.67 1.32 1.34 2.64 1 4 C0.34 4 -0.32 4 -1 4 C-1.309375 4.78375 -1.61875 5.5675 -1.9375 6.375 C-3 9 -3 9 -4 11 C-4.66 11 -5.32 11 -6 11 C-6.38091797 11.89525391 -6.38091797 11.89525391 -6.76953125 12.80859375 C-9.91998534 18.41940247 -17.0501299 22.21503897 -23 24 C-28.12599802 24.36042174 -33.0917196 24.63609347 -38 23 C-38 22.34 -38 21.68 -38 21 C-38.61875 20.95875 -39.2375 20.9175 -39.875 20.875 C-42 20 -42 20 -43.3125 17.1875 C-43.95876997 14.1911574 -44.07694171 12.80004844 -43 10 C-42.34 11.32 -41.68 12.64 -41 14 C-39.68 14 -38.36 14 -37 14 C-35.375 15.9375 -35.375 15.9375 -34 18 C-30.82994658 19.58502671 -27.50875122 19.60385067 -24 20 C-23.67 19.01 -23.34 18.02 -23 17 C-21.35 17.33 -19.7 17.66 -18 18 C-18 17.34 -18 16.68 -18 16 C-15.29120665 14.64560332 -12.99066732 14.93498549 -10 15 C-9.67 13.35 -9.34 11.7 -9 10 C-7.68 10 -6.36 10 -5 10 C-4.690625 9.05125 -4.38125 8.1025 -4.0625 7.125 C-3 4 -3 4 -2 2 C-1.34 2 -0.68 2 0 2 C0 1.34 0 0.68 0 0 Z " fill="#124291" transform="translate(144,129)"/>
<path d="M0 0 C0 4.29361923 -1.59542004 7.25308315 -3.625 11 C-5.03528254 14.07698008 -5.1741692 15.69078516 -5 19 C-5.15984375 19.62132813 -5.3196875 20.24265625 -5.484375 20.8828125 C-6.9952712 27.08664386 -5.87449953 33.76919085 -5 40 C-5 40.66 -5 41.32 -5 42 C-4.34 42.99 -3.68 43.98 -3 45 C-3.66 45.99 -4.32 46.98 -5 48 C-5.66 47.01 -6.32 46.02 -7 45 C-6.67 47.31 -6.34 49.62 -6 52 C-6.66 52 -7.32 52 -8 52 C-11.23533286 45.00997821 -11.39274231 38.94475268 -11.25 31.3125 C-11.24484375 30.19810547 -11.2396875 29.08371094 -11.234375 27.93554688 C-11.14019264 18.11114913 -11.14019264 18.11114913 -10 14 C-9.34 13.67 -8.68 13.34 -8 13 C-6.87775145 11.11986894 -6.87775145 11.11986894 -5.875 8.9375 C-5.34519531 7.83728516 -5.34519531 7.83728516 -4.8046875 6.71484375 C-4.53914063 6.14894531 -4.27359375 5.58304687 -4 5 C-3.34 5 -2.68 5 -2 5 C-1.855625 4.360625 -1.71125 3.72125 -1.5625 3.0625 C-1 1 -1 1 0 0 Z " fill="#3C6DA3" transform="translate(108,96)"/>
<path d="M0 0 C1.84765625 0.33984375 1.84765625 0.33984375 4.0625 0.9375 C4.79597656 1.13214844 5.52945313 1.32679688 6.28515625 1.52734375 C7.13400391 1.76130859 7.13400391 1.76130859 8 2 C7.49396008 4.16874252 7.00016187 5.99967627 6 8 C10.05606165 7.53199289 13.46588679 7.12046792 17 5 C19.475 6.98 19.475 6.98 22 9 C21.67 10.32 21.34 11.64 21 13 C20.21753906 13.04898438 19.43507812 13.09796875 18.62890625 13.1484375 C17.11103516 13.26058594 17.11103516 13.26058594 15.5625 13.375 C14.55316406 13.44460937 13.54382813 13.51421875 12.50390625 13.5859375 C11.67761719 13.72257813 10.85132812 13.85921875 10 14 C9.67 14.66 9.34 15.32 9 16 C8.67 14.68 8.34 13.36 8 12 C11.96 12 15.92 12 20 12 C19.505 10.515 19.505 10.515 19 9 C16.98491642 8.26676204 16.98491642 8.26676204 15 8 C14.67 8.66 14.34 9.32 14 10 C11.03 10 8.06 10 5 10 C5 10.99 5 11.98 5 13 C4.34 13 3.68 13 3 13 C2.67 14.32 2.34 15.64 2 17 C1.34 17 0.68 17 0 17 C0 16.34 0 15.68 0 15 C0.66 15 1.32 15 2 15 C0.980938 12.89970173 0.980938 12.89970173 -1 11 C-4.41627532 10.29727224 -4.41627532 10.29727224 -8.1875 10.25 C-10.09595703 10.16492188 -10.09595703 10.16492188 -12.04296875 10.078125 C-13.01878906 10.05234375 -13.99460937 10.0265625 -15 10 C-15 10.66 -15 11.32 -15 12 C-11.04 12 -7.08 12 -3 12 C-3.33 13.98 -3.66 15.96 -4 18 C-4.66 18 -5.32 18 -6 18 C-5.67 16.68 -5.34 15.36 -5 14 C-8.63 13.67 -12.26 13.34 -16 13 C-16 11.35 -16 9.7 -16 8 C-11.05 8 -6.1 8 -1 8 C-1 5.69 -1 3.38 -1 1 C-0.67 0.67 -0.34 0.34 0 0 Z " fill="#868381" transform="translate(94,198)"/>
<path d="M0 0 C2.97 0.495 2.97 0.495 6 1 C6 1.99 6 2.98 6 4 C4.34928604 5.02611949 2.68029994 6.02308143 1 7 C-0.03730256 8.30452336 -1.04404129 9.63474518 -2 11 C-0.84371094 10.98259766 -0.84371094 10.98259766 0.3359375 10.96484375 C1.33882812 10.95582031 2.34171875 10.94679687 3.375 10.9375 C4.37273437 10.92589844 5.37046875 10.91429687 6.3984375 10.90234375 C9 11 9 11 11 12 C11 12.99 11 13.98 11 15 C8.24973583 15.05404449 5.50053797 15.09369306 2.75 15.125 C1.97269531 15.14175781 1.19539063 15.15851563 0.39453125 15.17578125 C-6.72431144 15.23662606 -6.72431144 15.23662606 -10 13 C-10 13.99 -10 14.98 -10 16 C-11.98 16.33 -13.96 16.66 -16 17 C-16 13 -16 13 -14.171875 11.1484375 C-13.37265625 10.56320313 -12.5734375 9.97796875 -11.75 9.375 C-10.56664062 8.48941406 -10.56664062 8.48941406 -9.359375 7.5859375 C-7 6 -7 6 -4.8125 4.921875 C-2.47517889 3.73306513 -1.43669402 2.15504103 0 0 Z " fill="#615E5D" transform="translate(233,200)"/>
<path d="M0 0 C0.66 0.33 1.32 0.66 2 1 C1.65978036 4.17538332 0.97533396 5.02276865 -1.4375 7.25 C-4 9 -4 9 -6 9 C-5.67 10.32 -5.34 11.64 -5 13 C-3.68 12.67 -2.36 12.34 -1 12 C-0.67 13.32 -0.34 14.64 0 16 C0.99 16 1.98 16 3 16 C3 16.66 3 17.32 3 18 C-3.93 18 -10.86 18 -18 18 C-18 17.01 -18 16.02 -18 15 C-17.34 15 -16.68 15 -16 15 C-15.34 13.35 -14.68 11.7 -14 10 C-13.34 10 -12.68 10 -12 10 C-11.67 9.01 -11.34 8.02 -11 7 C-9.2578125 5.4296875 -9.2578125 5.4296875 -7.125 3.875 C-6.07699219 3.09769531 -6.07699219 3.09769531 -5.0078125 2.3046875 C-3 1 -3 1 0 0 Z " fill="#13387A" transform="translate(184,108)"/>
<path d="M0 0 C3.01357974 2.87659884 4.95458757 4.84198305 5.125 9.1875 C5.08375 10.115625 5.0425 11.04375 5 12 C4.01 12 3.02 12 2 12 C2 11.34 2 10.68 2 10 C-5.92 9.67 -13.84 9.34 -22 9 C-22 9.66 -22 10.32 -22 11 C-22.94359375 11.32871094 -22.94359375 11.32871094 -23.90625 11.6640625 C-30.08585663 13.95349508 -34.95291375 16.77059811 -40 21 C-39.67 19.68 -39.34 18.36 -39 17 C-38.34 17 -37.68 17 -37 17 C-36.67 15.68 -36.34 14.36 -36 13 C-35.34 13 -34.68 13 -34 13 C-34 12.34 -34 11.68 -34 11 C-32.700625 10.38125 -32.700625 10.38125 -31.375 9.75 C-28.05508562 8.02856292 -25.00887809 6.22083859 -22 4 C-22 3.34 -22 2.68 -22 2 C-20.68 2.33 -19.36 2.66 -18 3 C-18.33 3.66 -18.66 4.32 -19 5 C-17.12280518 5.2389157 -15.24542176 5.47642953 -13.3671875 5.70703125 C-11.76725509 5.90504269 -10.16828724 6.11098418 -8.5703125 6.32421875 C-7.78398437 6.42347656 -6.99765625 6.52273437 -6.1875 6.625 C-5.09501953 6.76808594 -5.09501953 6.76808594 -3.98046875 6.9140625 C-1.78688349 7.12732645 -1.78688349 7.12732645 1 6 C1.33 5.34 1.66 4.68 2 4 C1.34 4 0.68 4 0 4 C0 2.68 0 1.36 0 0 Z " fill="#4B6699" transform="translate(196,94)"/>
<path d="M0 0 C0.4640625 0.9590625 0.4640625 0.9590625 0.9375 1.9375 C1.8345163 3.93610821 1.8345163 3.93610821 3 5 C3.12798061 7.72033201 3.18522499 10.4040837 3.1875 13.125 C3.19974609 13.87265625 3.21199219 14.6203125 3.22460938 15.390625 C3.24139617 21.8143718 2.18381463 27.31461673 -1 33 C-2.32999347 30.34001305 -2.2988203 28.02630809 -2.5 25.0625 C-2.7240646 21.76955062 -2.95387694 19.13836918 -4 16 C-4.66 16 -5.32 16 -6 16 C-6 15.34 -6 14.68 -6 14 C-9.3 13.34 -12.6 12.68 -16 12 C-16 11.34 -16 10.68 -16 10 C-16.99 9.67 -17.98 9.34 -19 9 C-15.65590717 8.4128692 -12.40030023 7.94653616 -9 8 C-6.5 9.875 -6.5 9.875 -5 12 C-4.34 12.33 -3.68 12.66 -3 13 C-2.31292445 10.50935112 -2 8.62113708 -2 6 C-1.36893571 3.98848259 -0.70626239 1.98636298 0 0 Z " fill="#232175" transform="translate(203,114)"/>
<path d="M0 0 C0.66 0 1.32 0 2 0 C1.51925613 4.99234024 0.0731363 7.83279812 -2.9375 11.8125 C-3.64777344 12.76769531 -4.35804688 13.72289062 -5.08984375 14.70703125 C-7 17 -7 17 -9 18 C-9 17.01 -9 16.02 -9 15 C-9.66 15 -10.32 15 -11 15 C-11 15.66 -11 16.32 -11 17 C-11.99 17 -12.98 17 -14 17 C-14.33 17.99 -14.66 18.98 -15 20 C-19.455 19.01 -19.455 19.01 -24 18 C-21.94827178 15.72030198 -20.45252083 14.17404647 -17.5625 13.0625 C-14.26856355 11.69672147 -12.4683522 9.53330884 -10 7 C-9.01 6.67 -8.02 6.34 -7 6 C-7 5.34 -7 4.68 -7 4 C-5.02 4 -3.04 4 -1 4 C-0.67 2.68 -0.34 1.36 0 0 Z " fill="#183E87" transform="translate(161,142)"/>
<path d="M0 0 C1.32 0.33 2.64 0.66 4 1 C4 3.64 4 6.28 4 9 C5.65 8.67 7.3 8.34 9 8 C9.33 9.32 9.66 10.64 10 12 C7.69 12 5.38 12 3 12 C3.33 20.25 3.66 28.5 4 37 C2.68 37 1.36 37 0 37 C0 29.08 0 21.16 0 13 C-1.32 13 -2.64 13 -4 13 C-4 12.01 -4 11.02 -4 10 C-2.68 10 -1.36 10 0 10 C0 6.7 0 3.4 0 0 Z " fill="#3B3936" transform="translate(181,200)"/>
<path d="M0 0 C2.5625 1.5 2.5625 1.5 4 3 C4 3.66 4 4.32 4 5 C4.66 5 5.32 5 6 5 C6.28571429 13.57142857 6.28571429 13.57142857 4 17 C3.34 17 2.68 17 2 17 C2 17.66 2 18.32 2 19 C-0.75078884 19.91692961 -2.35948913 20.10886083 -5.1875 20.0625 C-7.0746875 20.0315625 -7.0746875 20.0315625 -9 20 C-8 17 -8 17 -5.9375 15.8125 C-3.83444772 14.21809552 -3.83444772 14.21809552 -3.703125 12.1015625 C-3.68189275 9.16089539 -3.66786676 6.66426648 -5 4 C-4.01 4.33 -3.02 4.66 -2 5 C-2 5.66 -2 6.32 -2 7 C-1.34 7 -0.68 7 0 7 C0 8.98 0 10.96 0 13 C0.66 13 1.32 13 2 13 C2.8252404 9.69903842 3.37001429 7.1967 2 4 C1.01 3.67 0.02 3.34 -1 3 C-1 2.34 -1 1.68 -1 1 C-7.6 0.67 -14.2 0.34 -21 0 C-14.18659712 -3.40670144 -7.09778352 -2.27296407 0 0 Z " fill="#787572" transform="translate(168,202)"/>
<path d="M0 0 C0.99 0.33 1.98 0.66 3 1 C3 1.66 3 2.32 3 3 C11.61738853 3.30654742 18.93475404 3.39589303 27 0 C27 0.66 27 1.32 27 2 C26.01 2 25.02 2 24 2 C24.33 2.99 24.66 3.98 25 5 C26.87387216 5.80212628 26.87387216 5.80212628 29.0625 6.1875 C29.79597656 6.34605469 30.52945313 6.50460938 31.28515625 6.66796875 C31.85105469 6.77753906 32.41695312 6.88710937 33 7 C29.22220273 9.48255249 25.41695078 9.26291893 21.0625 9.1875 C20.35931641 9.18685547 19.65613281 9.18621094 18.93164062 9.18554688 C15.17009734 9.15381877 11.65671641 8.8945001 8 8 C8 7.34 8 6.68 8 6 C6.35 6 4.7 6 3 6 C3.33 7.32 3.66 8.64 4 10 C1.24049934 7.50754779 -0.62030099 5.79699009 -1 2 C-0.67 1.34 -0.34 0.68 0 0 Z " fill="#E0E8F5" transform="translate(103,149)"/>
<path d="M0 0 C6.93 0.33 13.86 0.66 21 1 C21 1.66 21 2.32 21 3 C12.585 3.495 12.585 3.495 4 4 C3.67 13.57 3.34 23.14 3 33 C2.01 33 1.02 33 0 33 C0 22.11 0 11.22 0 0 Z " fill="#0E0908" transform="translate(49,202)"/>
<path d="M0 0 C0.66 0 1.32 0 2 0 C2 4.29 2 8.58 2 13 C4.64 13 7.28 13 10 13 C10.33 11.68 10.66 10.36 11 9 C11.99 9 12.98 9 14 9 C15.20272819 11.40545638 15.10071472 12.94996953 15.0625 15.625 C15.05347656 16.44226563 15.04445312 17.25953125 15.03515625 18.1015625 C15.02355469 18.72804687 15.01195312 19.35453125 15 20 C13.68 20.33 12.36 20.66 11 21 C10.67 19.68 10.34 18.36 10 17 C7.69 17 5.38 17 3 17 C3 20.96 3 24.92 3 29 C2.34 28.67 1.68 28.34 1 28 C1.01160156 27.07316406 1.02320313 26.14632812 1.03515625 25.19140625 C1.04417969 23.99386719 1.05320313 22.79632813 1.0625 21.5625 C1.07410156 20.36753906 1.08570313 19.17257813 1.09765625 17.94140625 C1.33901792 15.11126659 1.33901792 15.11126659 0 14 C-0.07271741 11.64686445 -0.08370868 9.29166332 -0.0625 6.9375 C-0.05347656 5.64714844 -0.04445313 4.35679687 -0.03515625 3.02734375 C-0.02355469 2.02832031 -0.01195313 1.02929688 0 0 Z " fill="#848382" transform="translate(128,204)"/>
<path d="M0 0 C6.93 0.495 6.93 0.495 14 1 C14.66 2.65 15.32 4.3 16 6 C15.01 6 14.02 6 13 6 C12.9175 6.598125 12.835 7.19625 12.75 7.8125 C11.77705573 10.65025411 10.55550687 11.49676067 8 13 C7.01 13 6.02 13 5 13 C5 12.01 5 11.02 5 10 C3.824375 9.566875 3.824375 9.566875 2.625 9.125 C0 8 0 8 -2 6 C-1.01 5.01 -0.02 4.02 1 3 C0.67 2.01 0.34 1.02 0 0 Z " fill="#1B1A71" transform="translate(174,160)"/>
<path d="M0 0 C-0.33 1.65 -0.66 3.3 -1 5 C-0.01 5 0.98 5 2 5 C2 5.66 2 6.32 2 7 C-2.95 7.33 -7.9 7.66 -13 8 C-12.67 8.66 -12.34 9.32 -12 10 C-16.43090471 8.79157144 -18.98112756 7.48331435 -22 4 C-19.35590419 1.35590419 -17.87063947 1.68165916 -14.1875 1.5 C-10.88725912 1.33601288 -8.372603 1.1509824 -5.30078125 -0.09375 C-3 -1 -3 -1 0 0 Z " fill="#F2F2FA" transform="translate(144,169)"/>
<path d="M0 0 C2.97 0.495 2.97 0.495 6 1 C6.5625 2.9375 6.5625 2.9375 7 5 C5.47243782 6.52756218 4.04915295 6.1617075 1.921875 6.2109375 C1.09042969 6.23929688 0.25898438 6.26765625 -0.59765625 6.296875 C-2.35005944 6.34849218 -4.10269159 6.39289757 -5.85546875 6.4296875 C-10.70960944 6.60919347 -14.01208292 6.91842771 -18 10 C-18.33 8.68 -18.66 7.36 -19 6 C-21.97 5.67 -24.94 5.34 -28 5 C-28 4.34 -28 3.68 -28 3 C-18.76 2.67 -9.52 2.34 0 2 C0 1.34 0 0.68 0 0 Z " fill="#201D1C" transform="translate(248,217)"/>
<path d="M0 0 C5.75 -0.125 5.75 -0.125 8 1 C7.67 2.98 7.34 4.96 7 7 C9.16666667 6.16666667 9.16666667 6.16666667 10 4 C12.64860427 3.40644386 15.29197322 3.25790731 18 3 C18 3.66 18 4.32 18 5 C15.69 5 13.38 5 11 5 C11 5.99 11 6.98 11 8 C12.65 8 14.3 8 16 8 C15.4409112 11.24271506 14.5867822 12.93057424 12 15 C11.34 15 10.68 15 10 15 C9.67 16.32 9.34 17.64 9 19 C8.67 18.34 8.34 17.68 8 17 C8.33 16.34 8.66 15.68 9 15 C8.34 15.66 7.68 16.32 7 17 C7 18.32 7 19.64 7 21 C7.99 20.67 8.98 20.34 10 20 C10 20.66 10 21.32 10 22 C8.35 22.33 6.7 22.66 5 23 C4.97310784 21.52093108 4.95365379 20.04172517 4.9375 18.5625 C4.92589844 17.73878906 4.91429687 16.91507813 4.90234375 16.06640625 C5 14 5 14 6 13 C7.66617115 12.95936168 9.33388095 12.957279 11 13 C10.67 12.01 10.34 11.02 10 10 C8.35 10 6.7 10 5 10 C4.67 7.36 4.34 4.72 4 2 C3.01 1.67 2.02 1.34 1 1 C1 4.3 1 7.6 1 11 C-0.32 11 -1.64 11 -3 11 C-3.33 11.99 -3.66 12.98 -4 14 C-4 12.68 -4 11.36 -4 10 C-3.01 9.67 -2.02 9.34 -1 9 C-0.67 6.03 -0.34 3.06 0 0 Z " fill="#A9A6A5" transform="translate(180,199)"/>
<path d="M0 0 C-1.32 0.33 -2.64 0.66 -4 1 C-4 1.66 -4 2.32 -4 3 C-4.99 3.66 -5.98 4.32 -7 5 C-4.94077598 7.05922402 -0.78291876 6.41427579 2.0625 6.5625 C3.20041992 6.62727539 3.20041992 6.62727539 4.36132812 6.69335938 C6.24065438 6.79973633 8.12030244 6.90039934 10 7 C3.85222365 10.86739816 -5.39476927 9.5865993 -12.2890625 8.46484375 C-17.84847971 7.09372064 -19.74792374 6.25207626 -24 2 C-18.39 2 -12.78 2 -7 2 C-7 1.34 -7 0.68 -7 0 C-2.25 -1.125 -2.25 -1.125 0 0 Z " fill="#5A588D" transform="translate(153,174)"/>
<path d="M0 0 C0.33 0.66 0.66 1.32 1 2 C0.34 2 -0.32 2 -1 2 C-1.33 4.64 -1.66 7.28 -2 10 C-1.34 10 -0.68 10 0 10 C0.33 8.35 0.66 6.7 1 5 C1.99 5.33 2.98 5.66 4 6 C3 8 2 10 1 12 C0.34 12 -0.32 12 -1 12 C-1 12.66 -1 13.32 -1 14 C-2.62626404 15.38232443 -4.2925002 16.71937515 -6 18 C-6.66 17.67 -7.32 17.34 -8 17 C-5.25 12.125 -5.25 12.125 -3 11 C-3.33 9.68 -3.66 8.36 -4 7 C-4.54140625 7.17402344 -5.0828125 7.34804687 -5.640625 7.52734375 C-8.48751809 8.09766505 -10.86718522 7.87137301 -13.75 7.5625 C-14.73484375 7.46066406 -15.7196875 7.35882813 -16.734375 7.25390625 C-17.48203125 7.17011719 -18.2296875 7.08632812 -19 7 C-19.33 7.66 -19.66 8.32 -20 9 C-21.32 8.34 -22.64 7.68 -24 7 C-23.34 5.68 -22.68 4.36 -22 3 C-21.16597656 3.11859375 -20.33195313 3.2371875 -19.47265625 3.359375 C-11.82361318 4.23555405 -6.65554553 4.00708555 0 0 Z " fill="#444281" transform="translate(192,154)"/>
<path d="M0 0 C4.84824868 0.41556417 6.88036862 2.37448245 10 6 C11.3125 8.3125 11.3125 8.3125 12 10 C10.75 11.5 10.75 11.5 9 13 C7.68 13 6.36 13 5 13 C4.67 11.68 4.34 10.36 4 9 C-0.62 9 -5.24 9 -10 9 C-10.33 7.35 -10.66 5.7 -11 4 C-10.67 4.66 -10.34 5.32 -10 6 C-6.04 6 -2.08 6 2 6 C1.34 4.02 0.68 2.04 0 0 Z " fill="#514E4E" transform="translate(241,225)"/>
<path d="M0 0 C0.33 0.66 0.66 1.32 1 2 C1.99 2 2.98 2 4 2 C5.3463268 4.69265361 5.12962636 6.80114249 5.1328125 9.8125 C5.13474609 11.54886719 5.13474609 11.54886719 5.13671875 13.3203125 C5.13285156 14.53460938 5.12898437 15.74890625 5.125 17 C5.12886719 18.21429688 5.13273438 19.42859375 5.13671875 20.6796875 C5.13542969 21.83726562 5.13414062 22.99484375 5.1328125 24.1875 C5.13168457 25.25355469 5.13055664 26.31960937 5.12939453 27.41796875 C5 30 5 30 4 32 C6.64 32.33 9.28 32.66 12 33 C12 32.34 12 31.68 12 31 C13.65 31.33 15.3 31.66 17 32 C17 32.66 17 33.32 17 34 C11.29309366 34.99250545 5.78591511 35.10477512 0 35 C0 34.01 0 33.02 0 32 C0.66 31.67 1.32 31.34 2 31 C2.33 21.76 2.66 12.52 3 3 C2.01 3 1.02 3 0 3 C-0.66 3.99 -1.32 4.98 -2 6 C-2 4.35 -2 2.7 -2 1 C-1.34 0.67 -0.68 0.34 0 0 Z " fill="#BFBEBB" transform="translate(146,202)"/>
<path d="M0 0 C0.99 0 1.98 0 3 0 C3 9.24 3 18.48 3 28 C3.99 28.33 4.98 28.66 6 29 C6 29.66 6 30.32 6 31 C3.03 31 0.06 31 -3 31 C-2.505 29.515 -2.505 29.515 -2 28 C-1.34 28 -0.68 28 0 28 C0 18.76 0 9.52 0 0 Z " fill="#110B09" transform="translate(152,204)"/>
<path d="M0 0 C3.23087421 0.55704728 5.02361137 1.33187535 7 4 C7 5.32 7 6.64 7 8 C7.66 8 8.32 8 9 8 C8.67 8.99 8.34 9.98 8 11 C1.93179132 12.08360869 -2.10106757 11.79074734 -8 10 C-6.68 9.01 -5.36 8.02 -4 7 C-4.33 6.01 -4.66 5.02 -5 4 C-3.35 3.67 -1.7 3.34 0 3 C0 2.01 0 1.02 0 0 Z " fill="#1C2C7A" transform="translate(189,90)"/>
<path d="M0 0 C0.99 0.33 1.98 0.66 3 1 C3 2.32 3 3.64 3 5 C3.804375 4.979375 4.60875 4.95875 5.4375 4.9375 C8 5 8 5 9 6 C8.60537976 10.73544283 8.03464238 14.65942958 6 19 C4.68 19 3.36 19 2 19 C2 18.01 2 17.02 2 16 C2.66 15.67 3.32 15.34 4 15 C4.46523063 13.10466658 4.46523063 13.10466658 4.625 10.9375 C4.74875 9.638125 4.8725 8.33875 5 7 C4.34 7 3.68 7 3 7 C2.81824219 7.63808594 2.63648438 8.27617187 2.44921875 8.93359375 C2.19785156 9.75988281 1.94648438 10.58617187 1.6875 11.4375 C1.44386719 12.26121094 1.20023438 13.08492187 0.94921875 13.93359375 C0.63597656 14.61550781 0.32273438 15.29742187 0 16 C-0.99 16.33 -1.98 16.66 -3 17 C-2.01 13.37 -1.02 9.74 0 6 C-1.32 5.67 -2.64 5.34 -4 5 C-2.68 5 -1.36 5 0 5 C0 3.35 0 1.7 0 0 Z " fill="#181514" transform="translate(191,217)"/>
<path d="M0 0 C2.31 0.33 4.62 0.66 7 1 C7 1.99 7 2.98 7 4 C8.3921875 3.8453125 8.3921875 3.8453125 9.8125 3.6875 C10.864375 3.790625 11.91625 3.89375 13 4 C14.875 6.5 14.875 6.5 16 9 C15.01 9.495 15.01 9.495 14 10 C13.71125 9.360625 13.4225 8.72125 13.125 8.0625 C12.17176549 5.84793921 12.17176549 5.84793921 10 5 C9.86722656 5.56589844 9.73445312 6.13179687 9.59765625 6.71484375 C9.33275391 7.81505859 9.33275391 7.81505859 9.0625 8.9375 C8.88847656 9.66839844 8.71445313 10.39929688 8.53515625 11.15234375 C8 13 8 13 7 14 C5.33382885 14.04063832 3.66611905 14.042721 2 14 C1.67 14.66 1.34 15.32 1 16 C-0.23076923 9.6 -0.23076923 9.6 0.9375 6.5625 C1.288125 6.046875 1.63875 5.53125 2 5 C2.66 5 3.32 5 4 5 C4 4.34 4 3.68 4 3 C2.02 3 0.04 3 -2 3 C-1.34 2.01 -0.68 1.02 0 0 Z " fill="#7C7A79" transform="translate(199,198)"/>
<path d="M0 0 C2.475 0.495 2.475 0.495 5 1 C4.67 1.66 4.34 2.32 4 3 C3.01 3 2.02 3 1 3 C1 3.66 1 4.32 1 5 C-1.71401294 6.35700647 -3.84846316 6.1123861 -6.8828125 6.09765625 C-8.04941406 6.09443359 -9.21601563 6.09121094 -10.41796875 6.08789062 C-11.64128906 6.07951172 -12.86460937 6.07113281 -14.125 6.0625 C-15.35605469 6.05798828 -16.58710938 6.05347656 -17.85546875 6.04882812 C-20.90369392 6.0370133 -23.95182314 6.02054028 -27 6 C-27 6.66 -27 7.32 -27 8 C-24.03 8 -21.06 8 -18 8 C-18.33 9.65 -18.66 11.3 -19 13 C-19.33 12.34 -19.66 11.68 -20 11 C-21.89533342 10.53476937 -21.89533342 10.53476937 -24.0625 10.375 C-25.361875 10.25125 -26.66125 10.1275 -28 10 C-28.38218767 8.34385343 -28.71395102 6.67542976 -29 5 C-28 4 -28 4 -25.31616211 3.88647461 C-24.14835205 3.89171143 -22.98054199 3.89694824 -21.77734375 3.90234375 C-20.51728516 3.90556641 -19.25722656 3.90878906 -17.95898438 3.91210938 C-16.61848891 3.92046597 -15.27799412 3.92893093 -13.9375 3.9375 C-12.59310058 3.9425134 -11.2486994 3.94707658 -9.90429688 3.95117188 C-6.60282059 3.96300512 -3.30143197 3.97949029 0 4 C0 2.68 0 1.36 0 0 Z " fill="#AEABAA" transform="translate(247,214)"/>
<path d="M0 0 C1.53817383 -0.03673828 1.53817383 -0.03673828 3.10742188 -0.07421875 C10.56312839 -0.1024779 16.4916349 1.39619834 23.3125 4.375 C20.03863547 5.46628818 19.32355614 5.2798048 16.125 4.4375 C4.7441633 1.99874928 -10.55902076 1.93374601 -21.36328125 6.5078125 C-23.6875 7.375 -23.6875 7.375 -26.6875 6.375 C-25.31417716 5.74632332 -23.93874167 5.12226109 -22.5625 4.5 C-21.79679688 4.15195313 -21.03109375 3.80390625 -20.2421875 3.4453125 C-18.97761719 2.91550781 -18.97761719 2.91550781 -17.6875 2.375 C-16.83800781 2.00890625 -15.98851562 1.6428125 -15.11328125 1.265625 C-10.07678556 -0.04374902 -5.18322138 0.00639509 0 0 Z " fill="#8CA9CA" transform="translate(151.6875,71.625)"/>
<path d="M0 0 C4.95 0 9.9 0 15 0 C15.66 1.65 16.32 3.3 17 5 C16.34 5 15.68 5 15 5 C15 5.99 15 6.98 15 8 C14.34 8 13.68 8 13 8 C11.85773284 10.28453433 10.93746527 12.62508799 10 15 C9.34 15 8.68 15 8 15 C8 15.66 8 16.32 8 17 C6.02 17.66 4.04 18.32 2 19 C6.6372315 10.6849642 6.6372315 10.6849642 9 8 C9.66 8 10.32 8 11 8 C11.33 6.02 11.66 4.04 12 2 C8.04 2 4.08 2 0 2 C0 1.34 0 0.68 0 0 Z " fill="#171311" transform="translate(79,208)"/>
<path d="M0 0 C0.33 1.32 0.66 2.64 1 4 C7.53509599 3.43582448 7.53509599 3.43582448 14 2.375 C16 2 16 2 18 3 C18 3.99 18 4.98 18 6 C15.24973583 6.05404449 12.50053797 6.09369306 9.75 6.125 C8.97269531 6.14175781 8.19539063 6.15851563 7.39453125 6.17578125 C0.27568856 6.23662606 0.27568856 6.23662606 -3 4 C-3 4.99 -3 5.98 -3 7 C-4.98 7.33 -6.96 7.66 -9 8 C-9 6.68 -9 5.36 -9 4 C-6.03 2.68 -3.06 1.36 0 0 Z " fill="#3A3736" transform="translate(226,209)"/>
<path d="M0 0 C1.98 0.99 1.98 0.99 4 2 C4 2.99 4 3.98 4 5 C4.66 5 5.32 5 6 5 C6.33 4.34 6.66 3.68 7 3 C6.34 3 5.68 3 5 3 C5 2.01 5 1.02 5 0 C5.66 0 6.32 0 7 0 C9.5 2.5 9.5 2.5 12 5 C13.60875 6.051875 13.60875 6.051875 15.25 7.125 C18 9 18 9 19 12 C16.3125 14.125 16.3125 14.125 13 16 C10.125 15.25 10.125 15.25 8 14 C8 13.34 8 12.68 8 12 C8.7425 12.185625 9.485 12.37125 10.25 12.5625 C12.94990963 12.99203108 14.44631077 12.85122974 17 12 C17 11.34 17 10.68 17 10 C11.67837512 7.33918756 8.13551841 8.32770717 2.625 10.0625 C1.75875 10.371875 0.8925 10.68125 0 11 C0 7.37 0 3.74 0 0 Z M1 3 C1 4.98 1 6.96 1 9 C1.99 8.67 2.98 8.34 4 8 C3.34 6.35 2.68 4.7 2 3 C1.67 3 1.34 3 1 3 Z " fill="#777472" transform="translate(99,214)"/>
<path d="M0 0 C1 3 1 3 0.12890625 5.26171875 C-3.93298285 11.55207569 -3.93298285 11.55207569 -7.90625 12.41308594 C-12.62934632 12.79727162 -17.29303138 12.45770043 -22 12 C-22 12.66 -22 13.32 -22 14 C-17.38 14 -12.76 14 -8 14 C-8.33 14.99 -8.66 15.98 -9 17 C-9 16.34 -9 15.68 -9 15 C-13.95 15 -18.9 15 -24 15 C-24 14.01 -24 13.02 -24 12 C-24.66 11.67 -25.32 11.34 -26 11 C-21.74115806 8.16077204 -17.64247919 8.93641038 -12.71679688 9.16601562 C-10.34453689 9.26056671 -10.34453689 9.26056671 -7 9 C-6.34 8.01 -5.68 7.02 -5 6 C-4.34 6 -3.68 6 -3 6 C-2.690625 5.195625 -2.38125 4.39125 -2.0625 3.5625 C-1 1 -1 1 0 0 Z " fill="#478DB9" transform="translate(155,114)"/>
<path d="M0 0 C5.69139902 1.09698167 10.74567937 2.54053077 16 5 C15.125 8.875 15.125 8.875 14 10 C12.33382885 10.04063832 10.66611905 10.042721 9 10 C9 9.34 9 8.68 9 8 C7.68 7.67 6.36 7.34 5 7 C5 6.34 5 5.68 5 5 C3.68 4.67 2.36 4.34 1 4 C0.67 2.68 0.34 1.36 0 0 Z " fill="#141210" transform="translate(240,205)"/>
<path d="M0 0 C1.32 0.33 2.64 0.66 4 1 C3.25 2.9375 3.25 2.9375 2 5 C-0.125 5.75 -0.125 5.75 -2 6 C-2 6.66 -2 7.32 -2 8 C-2.66 8 -3.32 8 -4 8 C-4 8.66 -4 9.32 -4 10 C-5.5390625 11.1484375 -5.5390625 11.1484375 -7.625 12.375 C-11.15564497 14.49213052 -14.58812567 16.69698483 -18 19 C-17.67 17.68 -17.34 16.36 -17 15 C-16.34 15 -15.68 15 -15 15 C-14.67 13.68 -14.34 12.36 -14 11 C-13.34 11 -12.68 11 -12 11 C-12 10.34 -12 9.68 -12 9 C-10.700625 8.38125 -10.700625 8.38125 -9.375 7.75 C-6.05508562 6.02856292 -3.00887809 4.22083859 0 2 C0 1.34 0 0.68 0 0 Z " fill="#1C639C" transform="translate(174,96)"/>
<path d="M0 0 C0.66 0 1.32 0 2 0 C1.70100785 3.58790575 1.23013399 4.78166776 -1.4375 7.3125 C-4 9 -4 9 -6 9 C-6 9.66 -6 10.32 -6 11 C-14.34332544 12.19190363 -22.59323022 12.09283549 -31 12 C-30.67 11.34 -30.34 10.68 -30 10 C-28.85402344 9.95101562 -27.70804687 9.90203125 -26.52734375 9.8515625 C-24.99737465 9.77647199 -23.46742782 9.70092694 -21.9375 9.625 C-21.18533203 9.5940625 -20.43316406 9.563125 -19.65820312 9.53125 C-14.81038719 9.27941541 -10.61691957 8.50831635 -6 7 C-6 6.34 -6 5.68 -6 5 C-4.6875 3.375 -4.6875 3.375 -3 2 C-2.01 2 -1.02 2 0 2 C0 1.34 0 0.68 0 0 Z " fill="#273473" transform="translate(150,157)"/>
<path d="M0 0 C0.66 0 1.32 0 2 0 C2 0.66 2 1.32 2 2 C3.31708854 2.65854427 4.65091274 3.28477432 6 3.875 C8 5 8 5 10 8 C9.67 8.33 9.34 8.66 9 9 C8.70564343 10.60001738 8.43929695 12.20523534 8.1875 13.8125 C7.39863281 18.02179899 6.58013889 20.37456482 3 23 C2.01 22.67 1.02 22.34 0 22 C0.9590625 21.7525 0.9590625 21.7525 1.9375 21.5 C4.16119241 20.218214 4.16119241 20.218214 4.48828125 18.0859375 C4.7275978 16.06424845 4.86893028 14.03158061 5 12 C4.34 12 3.68 12 3 12 C3 11.34 3 10.68 3 10 C2.34 9.67 1.68 9.34 1 9 C2.65 9 4.3 9 6 9 C3.32357511 6.81509993 3.32357511 6.81509993 1 7 C0.67 4.69 0.34 2.38 0 0 Z " fill="#82807F" transform="translate(207,215)"/>
<path d="M0 0 C3.77057547 -0.11597653 7.54069393 -0.18717396 11.3125 -0.25 C12.38435547 -0.28351563 13.45621094 -0.31703125 14.56054688 -0.3515625 C15.58857422 -0.36445312 16.61660156 -0.37734375 17.67578125 -0.390625 C18.62364502 -0.41157227 19.57150879 -0.43251953 20.5480957 -0.45410156 C23 0 23 0 24.80541992 1.80957031 C26.57549473 5.05525009 26.44661028 7.3633163 26 11 C24 13.9375 24 13.9375 22 16 C21.34 15.34 20.68 14.68 20 14 C20 12.68 20 11.36 20 10 C20.99 10 21.98 10 23 10 C22.81171228 7.55519921 22.81171228 7.55519921 22 5 C20.03241727 3.63979849 20.03241727 3.63979849 18 3 C18.33 2.67 18.66 2.34 19 2 C12.73 1.67 6.46 1.34 0 1 C0 0.67 0 0.34 0 0 Z " fill="#3B4984" transform="translate(163,128)"/>
<path d="M0 0 C5.28 0 10.56 0 16 0 C16 3.96 16 7.92 16 12 C10.72 12 5.44 12 0 12 C0 8.04 0 4.08 0 0 Z M1 2 C1 4.97 1 7.94 1 11 C5.29 11 9.58 11 14 11 C14 8.03 14 5.06 14 2 C9.71 2 5.42 2 1 2 Z " fill="#91908E" transform="translate(53,219)"/>
<path d="M0 0 C0 3.39593478 -0.52165948 4.06619881 -2.5 6.6875 C-2.9640625 7.31011719 -3.428125 7.93273437 -3.90625 8.57421875 C-4.2671875 9.04472656 -4.628125 9.51523438 -5 10 C-3.35 9.67 -1.7 9.34 0 9 C0 8.34 0 7.68 0 7 C2.31 7.33 4.62 7.66 7 8 C7 8.33 7 8.66 7 9 C5.02 9 3.04 9 1 9 C1 9.99 1 10.98 1 12 C2.98 12 4.96 12 7 12 C7 12.33 7 12.66 7 13 C3.33333333 13 -0.33333333 13 -4 13 C-6.01495907 13.61998741 -8.0187415 14.27954236 -10 15 C-10.33 13.68 -10.66 12.36 -11 11 C-10.54109375 10.62488281 -10.0821875 10.24976563 -9.609375 9.86328125 C-5.96703891 6.82545052 -2.82808093 3.84619007 0 0 Z " fill="#878584" transform="translate(87,216)"/>
<path d="M0 0 C0.33 0 0.66 0 1 0 C1 9.57 1 19.14 1 29 C0.34 29 -0.32 29 -1 29 C-1 23.72 -1 18.44 -1 13 C-3.31 13 -5.62 13 -8 13 C-9.32 12.34 -10.64 11.68 -12 11 C-8.37 11 -4.74 11 -1 11 C-1.020625 9.370625 -1.04125 7.74125 -1.0625 6.0625 C-1.08386068 4.37500659 -1.07205511 2.68608966 -1 1 C-0.67 0.67 -0.34 0.34 0 0 Z " fill="#12110F" transform="translate(70,206)"/>
<path d="M0 0 C2.475 0.99 2.475 0.99 5 2 C5 2.99 5 3.98 5 5 C1.04 5 -2.92 5 -7 5 C-6.34 6.32 -5.68 7.64 -5 9 C-5 9.99 -5 10.98 -5 12 C-4.34 12 -3.68 12 -3 12 C-3.33 13.32 -3.66 14.64 -4 16 C-4 15.34 -4 14.68 -4 14 C-4.66 14 -5.32 14 -6 14 C-6 13.01 -6 12.02 -6 11 C-6.66 11 -7.32 11 -8 11 C-8 10.01 -8 9.02 -8 8 C-8.99 8 -9.98 8 -11 8 C-10.67 6.35 -10.34 4.7 -10 3 C-7.03 3 -4.06 3 -1 3 C-0.67 2.01 -0.34 1.02 0 0 Z " fill="#181412" transform="translate(109,205)"/>
<path d="M0 0 C0.33 0.99 0.66 1.98 1 3 C1.66 3 2.32 3 3 3 C3.33 2.34 3.66 1.68 4 1 C4 1.66 4 2.32 4 3 C4.99 3.33 5.98 3.66 7 4 C6.67 4.99 6.34 5.98 6 7 C5.34 7 4.68 7 4 7 C4 7.66 4 8.32 4 9 C3.34 9 2.68 9 2 9 C1.67 9.66 1.34 10.32 1 11 C-0.32 10.34 -1.64 9.68 -3 9 C-3.33 9.99 -3.66 10.98 -4 12 C-4.99 11.67 -5.98 11.34 -7 11 C-4.69 7.37 -2.38 3.74 0 0 Z " fill="#0D4B96" transform="translate(162,129)"/>
<path d="M0 0 C0.66 0 1.32 0 2 0 C2.33 8.91 2.66 17.82 3 27 C3.66 27 4.32 27 5 27 C5 23.04 5 19.08 5 15 C5.33 15 5.66 15 6 15 C6.06058594 15.83144531 6.12117187 16.66289062 6.18359375 17.51953125 C6.26738281 18.60621094 6.35117188 19.69289062 6.4375 20.8125 C6.55931641 22.43091797 6.55931641 22.43091797 6.68359375 24.08203125 C6.90212461 27.05989905 6.90212461 27.05989905 8 30 C4.37 30.33 0.74 30.66 -3 31 C-3 30.34 -3 29.68 -3 29 C-2.01 29 -1.02 29 0 29 C0 19.43 0 9.86 0 0 Z " fill="#2D2B29" transform="translate(123,205)"/>
<path d="M0 0 C0.66 0 1.32 0 2 0 C1.67 1.32 1.34 2.64 1 4 C0.34 4 -0.32 4 -1 4 C-1.309375 4.78375 -1.61875 5.5675 -1.9375 6.375 C-3 9 -3 9 -4 11 C-4.66 11 -5.32 11 -6 11 C-6.2475 11.598125 -6.495 12.19625 -6.75 12.8125 C-8.16370012 15.28647521 -9.65055383 16.43370255 -12 18 C-12 17.34 -12 16.68 -12 16 C-13.32 16.33 -14.64 16.66 -16 17 C-16 17.66 -16 18.32 -16 19 C-19.96 19.495 -19.96 19.495 -24 20 C-23.505 18.515 -23.505 18.515 -23 17 C-21.35 17.33 -19.7 17.66 -18 18 C-18 17.34 -18 16.68 -18 16 C-15.29120665 14.64560332 -12.99066732 14.93498549 -10 15 C-9.67 13.35 -9.34 11.7 -9 10 C-7.68 10 -6.36 10 -5 10 C-4.690625 9.05125 -4.38125 8.1025 -4.0625 7.125 C-3 4 -3 4 -2 2 C-1.34 2 -0.68 2 0 2 C0 1.34 0 0.68 0 0 Z " fill="#145593" transform="translate(144,129)"/>
<path d="M0 0 C0.66 0.33 1.32 0.66 2 1 C2.0544207 3.68777802 2.09387266 6.37443212 2.125 9.0625 C2.14175781 9.81466797 2.15851563 10.56683594 2.17578125 11.34179688 C2.23174967 17.80614975 1.20638859 23.27430609 -2 29 C-3.2063366 23.77254141 -2.75612577 19.23471686 -2 14 C-1.34 14 -0.68 14 0 14 C0 9.38 0 4.76 0 0 Z " fill="#141259" transform="translate(204,118)"/>
<path d="M0 0 C2 1 2 1 3 3 C2.67 3.66 2.34 4.32 2 5 C6.95 5.33 11.9 5.66 17 6 C17 6.66 17 7.32 17 8 C10.07 8 3.14 8 -4 8 C-4 7.01 -4 6.02 -4 5 C-3.34 5 -2.68 5 -2 5 C-1.34 3.35 -0.68 1.7 0 0 Z " fill="#4B6194" transform="translate(170,118)"/>
<path d="M0 0 C2 3 2 3 2 5 C1.34 5 0.68 5 0 5 C0 5.66 0 6.32 0 7 C-4.47058824 11 -4.47058824 11 -7 11 C-7.33 11.99 -7.66 12.98 -8 14 C-11.3 14.66 -14.6 15.32 -18 16 C-16.70670522 13.41341045 -15.52341859 13.17501507 -12.9375 11.9375 C-7.42135835 9.00262976 -3.86093299 4.8287963 0 0 Z " fill="#314D88" transform="translate(154,141)"/>
<path d="M0 0 C0.66 0 1.32 0 2 0 C2.33 1.98 2.66 3.96 3 6 C7.62 5.67 12.24 5.34 17 5 C17 5.99 17 6.98 17 8 C16.34 7.67 15.68 7.34 15 7 C12.3726355 7.2274522 9.79716985 7.51712898 7.1875 7.875 C6.47529297 7.96652344 5.76308594 8.05804688 5.02929688 8.15234375 C1.32145951 8.63940472 -2.34441742 9.20999198 -6 10 C-5.34 9.67 -4.68 9.34 -4 9 C-4 7.68 -4 6.36 -4 5 C-2.68 4.67 -1.36 4.34 0 4 C0 2.68 0 1.36 0 0 Z " fill="#72706F" transform="translate(228,228)"/>
<path d="M0 0 C1.65 0 3.3 0 5 0 C4 3 4 3 1 5 C0.74969023 7.58380177 0.74969023 7.58380177 1 10 C0.01 10 -0.98 10 -2 10 C-2 10.99 -2 11.98 -2 13 C-2.66 13 -3.32 13 -4 13 C-3.67 11.02 -3.34 9.04 -3 7 C-4.65 7 -6.3 7 -8 7 C-8 6.01 -8 5.02 -8 4 C-5.69 4 -3.38 4 -1 4 C-0.67 2.68 -0.34 1.36 0 0 Z " fill="#282524" transform="translate(199,200)"/>
<path d="M0 0 C2.97 0.495 2.97 0.495 6 1 C6.5625 2.9375 6.5625 2.9375 7 5 C6 6 6 6 4.14233398 6.11352539 C3.35157471 6.10828857 2.56081543 6.10305176 1.74609375 6.09765625 C0.89208984 6.09443359 0.03808594 6.09121094 -0.84179688 6.08789062 C-1.73962891 6.07951172 -2.63746094 6.07113281 -3.5625 6.0625 C-4.46419922 6.05798828 -5.36589844 6.05347656 -6.29492188 6.04882812 C-8.53001314 6.03700225 -10.76497437 6.0205222 -13 6 C-13 5.67 -13 5.34 -13 5 C-7.555 4.505 -7.555 4.505 -2 4 C-2 3.34 -2 2.68 -2 2 C-1.34 2 -0.68 2 0 2 C0 1.34 0 0.68 0 0 Z " fill="#4D4949" transform="translate(248,217)"/>
<path d="M0 0 C6.61818182 0.89090909 6.61818182 0.89090909 8.88671875 1.5390625 C12.38406614 2.30188504 15.88126338 1.96060843 19.44140625 1.83984375 C22 2 22 2 25 4 C20.05443583 6.47278209 12.41566095 5.41165439 7 5 C4.0440468 3.98817148 2.45649395 2.96519516 0 1 C0 0.67 0 0.34 0 0 Z " fill="#4C4F84" transform="translate(113,166)"/>
<path d="M0 0 C5.93008527 2.37203411 9.67960187 6.38353398 14 11 C13.67 11.66 13.34 12.32 13 13 C12.54625 12.505 12.0925 12.01 11.625 11.5 C10.12364481 9.77390663 10.12364481 9.77390663 8 10 C7.67 10.99 7.34 11.98 7 13 C6.67 12.34 6.34 11.68 6 11 C5.01 11.33 4.02 11.66 3 12 C3.33 11.01 3.66 10.02 4 9 C3.26248906 5.87064083 3.26248906 5.87064083 2 3 C1.34 2.67 0.68 2.34 0 2 C0 1.34 0 0.68 0 0 Z " fill="#5D639D" transform="translate(182,81)"/>
<path d="M0 0 C0.99 0.33 1.98 0.66 3 1 C3.76173392 5.3164922 4.16063604 8.74433453 3 13 C4.32 13 5.64 13 7 13 C7 13.66 7 14.32 7 15 C4.24921116 15.91692961 2.64051087 16.10886083 -0.1875 16.0625 C-2.0746875 16.0315625 -2.0746875 16.0315625 -4 16 C-3 13 -3 13 -0.9375 11.8125 C1.16555228 10.21809552 1.16555228 10.21809552 1.296875 8.1015625 C1.31810725 5.16089539 1.33213324 2.66426648 0 0 Z " fill="#878583" transform="translate(163,206)"/>
<path d="M0 0 C-2.88091787 3.17239897 -5.53530325 4.99644695 -9.4375 6.75 C-10.82775391 7.39195312 -10.82775391 7.39195312 -12.24609375 8.046875 C-15.03197351 9.01106601 -17.07853116 9.19087637 -20 9 C-18.8125 7.5 -18.8125 7.5 -17 6 C-14.3125 5.8125 -14.3125 5.8125 -12 6 C-11.938125 5.38125 -11.87625 4.7625 -11.8125 4.125 C-11 2 -11 2 -8.8125 0.75 C-5.75967331 -0.06408712 -3.14582965 -0.14631766 0 0 Z " fill="#555385" transform="translate(184,172)"/>
<path d="M0 0 C3.04501518 3.04501518 2.29363761 6.05467491 2.32226562 10.21875 C2.31904297 11.3015625 2.31582031 12.384375 2.3125 13.5 C2.32861328 14.551875 2.34472656 15.60375 2.36132812 16.6875 C2.36550222 23.43283067 1.83047871 29.78494946 -1 36 C-1.99 36.495 -1.99 36.495 -3 37 C-2.69249629 34.85344499 -2.3788634 32.70776715 -2.0625 30.5625 C-1.88847656 29.36753906 -1.71445313 28.17257813 -1.53515625 26.94140625 C-1 24 -1 24 0 23 C0.08713831 21.29227642 0.10700007 19.58101351 0.09765625 17.87109375 C0.09443359 16.83662109 0.09121094 15.80214844 0.08789062 14.73632812 C0.07951172 13.64771484 0.07113281 12.55910156 0.0625 11.4375 C0.05798828 10.34501953 0.05347656 9.25253906 0.04882812 8.12695312 C0.03699826 5.41791505 0.02051543 2.70898401 0 0 Z " fill="#9B99BB" transform="translate(205,113)"/>
<path d="M0 0 C0.66 0 1.32 0 2 0 C2.33 7.92 2.66 15.84 3 24 C2.01 24 1.02 24 0 24 C0 16.08 0 8.16 0 0 Z " fill="#0E0B09" transform="translate(182,213)"/>
<path d="M0 0 C0.33 0.66 0.66 1.32 1 2 C1.99 2 2.98 2 4 2 C3.67 2.66 3.34 3.32 3 4 C2.77377919 5.70363822 2.59111527 7.41328701 2.4375 9.125 C2.35371094 10.03507813 2.26992187 10.94515625 2.18359375 11.8828125 C2.12300781 12.58148438 2.06242187 13.28015625 2 14 C1.67 14 1.34 14 1 14 C0.67 11.36 0.34 8.72 0 6 C-0.33 6 -0.66 6 -1 6 C-1.33 8.64 -1.66 11.28 -2 14 C-2.33 14 -2.66 14 -3 14 C-3.33 12.35 -3.66 10.7 -4 9 C-5.32 9.99 -6.64 10.98 -8 12 C-7.875 9.1875 -7.875 9.1875 -7 6 C-4 4.3125 -4 4.3125 -1 3 C-0.67 2.01 -0.34 1.02 0 0 Z " fill="#4B4744" transform="translate(97,211)"/>
<path d="M0 0 C0.88042969 0.08378906 1.76085937 0.16757813 2.66796875 0.25390625 C4.41013672 0.40666016 4.41013672 0.40666016 6.1875 0.5625 C7.33605469 0.66691406 8.48460937 0.77132812 9.66796875 0.87890625 C12.68631199 0.98859985 15.08923936 0.74002389 18 0 C18 0.66 18 1.32 18 2 C16.68 2 15.36 2 14 2 C14 2.66 14 3.32 14 4 C10.37 4 6.74 4 3 4 C2.67 4.66 2.34 5.32 2 6 C0.68 5.34 -0.64 4.68 -2 4 C-1.34 2.68 -0.68 1.36 0 0 Z " fill="#43417B" transform="translate(170,157)"/>
<path d="M0 0 C0 4.29361923 -1.59542004 7.25308315 -3.625 11 C-5.00306075 14.006678 -5.28670813 15.75064118 -5 19 C-6.32 19.33 -7.64 19.66 -9 20 C-9.78287497 13.89357521 -7.10825151 9.99540421 -4 5 C-3.34 5 -2.68 5 -2 5 C-1.855625 4.360625 -1.71125 3.72125 -1.5625 3.0625 C-1 1 -1 1 0 0 Z " fill="#1A6297" transform="translate(108,96)"/>
<path d="M0 0 C3.23087421 0.55704728 5.02361137 1.33187535 7 4 C7 5.32 7 6.64 7 8 C7.66 8 8.32 8 9 8 C8.67 8.99 8.34 9.98 8 11 C6.02 11.33 4.04 11.66 2 12 C1.67 11.01 1.34 10.02 1 9 C1.99 9 2.98 9 4 9 C3.34 8.01 2.68 7.02 2 6 C1.875 3.3125 1.875 3.3125 2 1 C1.34 0.67 0.68 0.34 0 0 Z " fill="#151A6C" transform="translate(189,90)"/>
<path d="M0 0 C1.5625 1.125 1.5625 1.125 3 3 C2.6875 6.1875 2.6875 6.1875 2 9 C0.205625 8.2884375 0.205625 8.2884375 -1.625 7.5625 C-5.06414238 6.26517227 -8.33895604 5.45763049 -12 5 C-12 4.67 -12 4.34 -12 4 C-11.071875 3.855625 -10.14375 3.71125 -9.1875 3.5625 C-5.99274889 3.07899889 -5.99274889 3.07899889 -3 2 C-3 2.66 -3 3.32 -3 4 C-2.01 4 -1.02 4 0 4 C0 2.68 0 1.36 0 0 Z " fill="#ADAAC8" transform="translate(201,102)"/>
<path d="M0 0 C0.98291016 0.00322266 1.96582031 0.00644531 2.97851562 0.00976562 C4.51475586 0.02233398 4.51475586 0.02233398 6.08203125 0.03515625 C7.63567383 0.04192383 7.63567383 0.04192383 9.22070312 0.04882812 C11.77870391 0.06061615 14.33658858 0.0770711 16.89453125 0.09765625 C16.89453125 0.42765625 16.89453125 0.75765625 16.89453125 1.09765625 C15.90710938 1.15824219 14.9196875 1.21882813 13.90234375 1.28125 C12.62101562 1.36503906 11.3396875 1.44882813 10.01953125 1.53515625 C8.74335938 1.61636719 7.4671875 1.69757813 6.15234375 1.78125 C3.01152973 1.88971652 3.01152973 1.88971652 0.89453125 3.09765625 C0.23453125 2.76765625 -0.42546875 2.43765625 -1.10546875 2.09765625 C-1.10546875 2.75765625 -1.10546875 3.41765625 -1.10546875 4.09765625 C-4.40546875 4.09765625 -7.70546875 4.09765625 -11.10546875 4.09765625 C-7.30740574 0.29959324 -5.14100601 -0.0297168 0 0 Z " fill="#095596" transform="translate(141.10546875,74.90234375)"/>
<path d="M0 0 C1.32 0 2.64 0 4 0 C4 1.98 4 3.96 4 6 C3.34 6 2.68 6 2 6 C2.33 4.68 2.66 3.36 3 2 C2.34 2 1.68 2 1 2 C1 2.763125 1 3.52625 1 4.3125 C1 10 1 10 0 12 C0.99 12.33 1.98 12.66 3 13 C1.02 13.99 1.02 13.99 -1 15 C-2.71056541 12.41569255 -3.05220752 11.31678461 -2.5390625 8.203125 C-2.23742187 7.22859375 -1.93578125 6.2540625 -1.625 5.25 C-1.32851562 4.26515625 -1.03203125 3.2803125 -0.7265625 2.265625 C-0.48679688 1.51796875 -0.24703125 0.7703125 0 0 Z " fill="#999695" transform="translate(200,223)"/>
<path d="M0 0 C7.26 0 14.52 0 22 0 C22 2.31 22 4.62 22 7 C21.505 6.360625 21.01 5.72125 20.5 5.0625 C15.11532239 0.62014097 6.67507457 1.87689412 0 2 C0 1.34 0 0.68 0 0 Z " fill="#383637" transform="translate(121,202)"/>
<path d="M0 0 C2.97 0.495 2.97 0.495 6 1 C6 1.66 6 2.32 6 3 C7.32 3.66 8.64 4.32 10 5 C10 8 10 8 9 11 C8.62875 10.401875 8.2575 9.80375 7.875 9.1875 C5.57438992 6.50345491 3.20248935 5.4233286 0 4 C0 2.68 0 1.36 0 0 Z " fill="#1A317A" transform="translate(176,80)"/>
<path d="M0 0 C6.28660266 -0.41910684 12.11614059 0.7232837 18 3 C19.828125 4.60546875 19.828125 4.60546875 21 6 C12.42857143 6.14285714 12.42857143 6.14285714 9 5 C9 4.34 9 3.68 9 3 C4.545 2.01 4.545 2.01 0 1 C0 0.67 0 0.34 0 0 Z " fill="#3C578D" transform="translate(161,75)"/>
<path d="M0 0 C1.37562854 1.28965176 2.70766393 2.62689293 4 4 C4.66 4.66 5.32 5.32 6 6 C5.67 6.66 5.34 7.32 5 8 C4.34 8 3.68 8 3 8 C3 7.34 3 6.68 3 6 C-0.3 5.34 -3.6 4.68 -7 4 C-7 3.34 -7 2.68 -7 2 C-7.99 1.67 -8.98 1.34 -10 1 C-2.25 0 -2.25 0 0 0 Z " fill="#1C256C" transform="translate(194,122)"/>
<path d="M0 0 C3.01357974 2.87659884 4.95458757 4.84198305 5.125 9.1875 C5.08375 10.115625 5.0425 11.04375 5 12 C4.01 12 3.02 12 2 12 C2 11.34 2 10.68 2 10 C0.35 10 -1.3 10 -3 10 C-2.34 8.68 -1.68 7.36 -1 6 C-0.34 6 0.32 6 1 6 C1.33 5.34 1.66 4.68 2 4 C1.34 4 0.68 4 0 4 C0 2.68 0 1.36 0 0 Z " fill="#444380" transform="translate(196,94)"/>
<path d="M0 0 C1 2 1 2 0.25 5.0625 C-0.1625 6.031875 -0.575 7.00125 -1 8 C-1.99 8.33 -2.98 8.66 -4 9 C-4.33 9.99 -4.66 10.98 -5 12 C-5.680625 12.6496875 -5.680625 12.6496875 -6.375 13.3125 C-8.56549585 15.58724569 -9.67301478 18.15646023 -11 21 C-11.33 20.34 -11.66 19.68 -12 19 C-11.07421875 16.7578125 -11.07421875 16.7578125 -9.6875 14.125 C-9.23761719 13.26132813 -8.78773437 12.39765625 -8.32421875 11.5078125 C-7.88722656 10.68023437 -7.45023437 9.85265625 -7 9 C-6.32974912 7.6684648 -5.66169158 6.3358093 -5 5 C-4.34 5 -3.68 5 -3 5 C-2.690625 4.360625 -2.38125 3.72125 -2.0625 3.0625 C-1 1 -1 1 0 0 Z " fill="#8DB8D6" transform="translate(111,89)"/>
<path d="M0 0 C0 1.32 0 2.64 0 4 C-0.66 4 -1.32 4 -2 4 C-2 5.32 -2 6.64 -2 8 C-2.99 8 -3.98 8 -5 8 C-5.33 9.32 -5.66 10.64 -6 12 C-6.66 12 -7.32 12 -8 12 C-8.125 6.25 -8.125 6.25 -7 4 C-6.34 4 -5.68 4 -5 4 C-5 3.34 -5 2.68 -5 2 C-2 0 -2 0 0 0 Z " fill="#1A176B" transform="translate(198,152)"/>
<path d="M0 0 C0.99 0.33 1.98 0.66 3 1 C3 1.66 3 2.32 3 3 C8.61 3 14.22 3 20 3 C19.67 3.66 19.34 4.32 19 5 C16.28553021 5.31241455 13.66090639 5.51336592 10.9375 5.625 C10.17888672 5.66367188 9.42027344 5.70234375 8.63867188 5.7421875 C6.75952805 5.83673562 4.87979664 5.91946756 3 6 C3.33 7.32 3.66 8.64 4 10 C1.24049934 7.50754779 -0.62030099 5.79699009 -1 2 C-0.67 1.34 -0.34 0.68 0 0 Z " fill="#AFB9D6" transform="translate(103,149)"/>
<path d="M0 0 C0.33 0.66 0.66 1.32 1 2 C3.02463255 2.65213292 3.02463255 2.65213292 5 3 C5.625 5.8125 5.625 5.8125 6 9 C5.01 10.485 5.01 10.485 4 12 C3.34 12 2.68 12 2 12 C2 10.02 2 8.04 2 6 C1.34 6 0.68 6 0 6 C-1.625 4 -1.625 4 -3 2 C-2.01 2 -1.02 2 0 2 C0 1.34 0 0.68 0 0 Z " fill="#1A1513" transform="translate(166,203)"/>
<path d="M0 0 C0.66 0 1.32 0 2 0 C2 2.64 2 5.28 2 8 C1.01 8.33 0.02 8.66 -1 9 C-1 9.99 -1 10.98 -1 12 C0.32 12.33 1.64 12.66 3 13 C1.35 13.33 -0.3 13.66 -2 14 C-2 13.01 -2 12.02 -2 11 C-2.99 11.33 -3.98 11.66 -5 12 C-5 11.01 -5 10.02 -5 9 C-4.34 9 -3.68 9 -3 9 C-2.01 6.03 -1.02 3.06 0 0 Z M0 2 C-0.33 3.98 -0.66 5.96 -1 8 C-0.34 7.67 0.32 7.34 1 7 C1 5.35 1 3.7 1 2 C0.67 2 0.34 2 0 2 Z " fill="#A3A09F" transform="translate(194,224)"/>
<path d="M0 0 C1.65 0.33 3.3 0.66 5 1 C5 1.66 5 2.32 5 3 C-0.70690634 3.99250545 -6.21408489 4.10477512 -12 4 C-12 3.01 -12 2.02 -12 1 C-8.04 1.33 -4.08 1.66 0 2 C0 1.34 0 0.68 0 0 Z " fill="#8C8989" transform="translate(158,233)"/>
<path d="M0 0 C0.99 0.66 1.98 1.32 3 2 C2.360625 2.2475 1.72125 2.495 1.0625 2.75 C-1.18741541 3.81562433 -1.18741541 3.81562433 -1.75 6.125 C-1.8325 6.74375 -1.915 7.3625 -2 8 C-2.33 7.34 -2.66 6.68 -3 6 C-2.67 5.34 -2.34 4.68 -2 4 C-2.66 4.66 -3.32 5.32 -4 6 C-4 7.32 -4 8.64 -4 10 C-3.01 9.67 -2.02 9.34 -1 9 C-1 9.66 -1 10.32 -1 11 C-2.65 11.33 -4.3 11.66 -6 12 C-6.02689216 10.52093108 -6.04634621 9.04172517 -6.0625 7.5625 C-6.07410156 6.73878906 -6.08570313 5.91507813 -6.09765625 5.06640625 C-6 3 -6 3 -5 2 C-3.33382885 1.95936168 -1.66611905 1.957279 0 2 C0 1.34 0 0.68 0 0 Z " fill="#A4A2A0" transform="translate(191,210)"/>
<path d="M0 0 C0.99 0.33 1.98 0.66 3 1 C1.625 3 1.625 3 0 5 C-0.66 5 -1.32 5 -2 5 C-2 5.66 -2 6.32 -2 7 C-3.32 7 -4.64 7 -6 7 C-6 8.65 -6 10.3 -6 12 C-7.32 11.67 -8.64 11.34 -10 11 C-9.01 11 -8.02 11 -7 11 C-7.103125 9.906875 -7.20625 8.81375 -7.3125 7.6875 C-7.209375 6.470625 -7.10625 5.25375 -7 4 C-4.5 2.0625 -4.5 2.0625 -2 1 C-2 1.66 -2 2.32 -2 3 C-1.34 3 -0.68 3 0 3 C0 2.01 0 1.02 0 0 Z " fill="#585957" transform="translate(197,210)"/>
<path d="M0 0 C3.77001757 0.40978452 5.80106814 0.86737876 9 3 C9 3.66 9 4.32 9 5 C7.02 5.66 5.04 6.32 3 7 C2.67 6.01 2.34 5.02 2 4 C1.34 4 0.68 4 0 4 C-0.33 3.01 -0.66 2.02 -1 1 C-0.67 0.67 -0.34 0.34 0 0 Z " fill="#1C1917" transform="translate(107,221)"/>
<path d="M0 0 C1.32 0.33 2.64 0.66 4 1 C4 1.66 4 2.32 4 3 C3.01 3.66 2.02 4.32 1 5 C0.41810734 7.42521494 0.41810734 7.42521494 0.3125 10.125 C0.24675781 11.03507813 0.18101563 11.94515625 0.11328125 12.8828125 C0.07589844 13.58148438 0.03851563 14.28015625 0 15 C-0.66 14.67 -1.32 14.34 -2 14 C-1.67 10.7 -1.34 7.4 -1 4 C-5.95 4 -10.9 4 -16 4 C-16 3.67 -16 3.34 -16 3 C-10.39 3 -4.78 3 1 3 C0.67 2.01 0.34 1.02 0 0 Z " fill="#393635" transform="translate(69,202)"/>
<path d="M0 0 C-0.99 0.33 -1.98 0.66 -3 1 C-3 2.32 -3 3.64 -3 5 C-2.01 5.33 -1.02 5.66 0 6 C-1.45635371 6.22174933 -2.91522956 6.42698698 -4.375 6.625 C-5.18710938 6.74101562 -5.99921875 6.85703125 -6.8359375 6.9765625 C-7.55007812 6.98429688 -8.26421875 6.99203125 -9 7 C-9.66 6.34 -10.32 5.68 -11 5 C-9.68 4.34 -8.36 3.68 -7 3 C-7 2.34 -7 1.68 -7 1 C-3.375 -1.125 -3.375 -1.125 0 0 Z " fill="#181564" transform="translate(156,174)"/>
<path d="M0 0 C0.99 0.33 1.98 0.66 3 1 C3 1.99 3 2.98 3 4 C5.64 3.34 8.28 2.68 11 2 C11.33 3.32 11.66 4.64 12 6 C10.37509046 6.02698189 8.75005367 6.04638757 7.125 6.0625 C5.76761719 6.07990234 5.76761719 6.07990234 4.3828125 6.09765625 C2 6 2 6 0 5 C-0.6875 3 -0.6875 3 -1 1 C-0.67 0.67 -0.34 0.34 0 0 Z " fill="#0E3C86" transform="translate(172,118)"/>
<path d="M0 0 C1.98 0.495 1.98 0.495 4 1 C4.92470553 5.71599818 5.22923777 8.67265609 3 13 C1.68 13 0.36 13 -1 13 C-1 12.01 -1 11.02 -1 10 C-0.34 9.67 0.32 9.34 1 9 C1.46523063 7.10466658 1.46523063 7.10466658 1.625 4.9375 C1.74875 3.638125 1.8725 2.33875 2 1 C1.34 0.67 0.68 0.34 0 0 Z " fill="#171616" transform="translate(194,223)"/>
<path d="M0 0 C1.98 0 3.96 0 6 0 C5.25 7.75 5.25 7.75 3 10 C2.01 10 1.02 10 0 10 C0 6.7 0 3.4 0 0 Z M2 2 C1.67 4.31 1.34 6.62 1 9 C3.58777208 5.94419026 3.58777208 5.94419026 4 2 C3.34 2 2.68 2 2 2 Z " fill="#8A8786" transform="translate(185,223)"/>
<path d="M0 0 C0.33 0.66 0.66 1.32 1 2 C4.96 2 8.92 2 13 2 C12.01 3.485 12.01 3.485 11 5 C8.6171875 5.29296875 8.6171875 5.29296875 5.875 5.1875 C4.96492187 5.16042969 4.05484375 5.13335937 3.1171875 5.10546875 C2.41851562 5.07066406 1.71984375 5.03585938 1 5 C0.67 3.35 0.34 1.7 0 0 Z " fill="#262222" transform="translate(230,229)"/>
<path d="M0 0 C1.48521677 0.75911079 2.96303425 1.53271234 4.4375 2.3125 C5.67306641 2.95638672 5.67306641 2.95638672 6.93359375 3.61328125 C9 5 9 5 10 8 C7.3125 10.125 7.3125 10.125 4 12 C1.125 11.25 1.125 11.25 -1 10 C-1 9.34 -1 8.68 -1 8 C-0.2575 8.185625 0.485 8.37125 1.25 8.5625 C3.94990963 8.99203108 5.44631077 8.85122974 8 8 C8 7.34 8 6.68 8 6 C7.236875 5.71125 6.47375 5.4225 5.6875 5.125 C3 4 3 4 0 2 C0 1.34 0 0.68 0 0 Z " fill="#B0AEAC" transform="translate(108,218)"/>
<path d="M0 0 C0 0.66 0 1.32 0 2 C-1.32 2 -2.64 2 -4 2 C-4 2.66 -4 3.32 -4 4 C-10.6 4 -17.2 4 -24 4 C-23.67 3.34 -23.34 2.68 -23 2 C-21.81921875 1.93941406 -20.6384375 1.87882813 -19.421875 1.81640625 C-17.8645723 1.73197418 -16.30728121 1.64732751 -14.75 1.5625 C-13.97269531 1.52318359 -13.19539062 1.48386719 -12.39453125 1.44335938 C-11.64042969 1.40146484 -10.88632813 1.35957031 -10.109375 1.31640625 C-9.41811523 1.27974854 -8.72685547 1.24309082 -8.01464844 1.20532227 C-5.26973404 0.92557517 -2.76062706 0 0 0 Z " fill="#161F69" transform="translate(143,165)"/>
<path d="M0 0 C2.475 0.99 2.475 0.99 5 2 C5 2.99 5 3.98 5 5 C3.37536158 5.05395478 1.75021459 5.09277195 0.125 5.125 C-0.77992187 5.14820313 -1.68484375 5.17140625 -2.6171875 5.1953125 C-5 5 -5 5 -7 3 C-5.02 3 -3.04 3 -1 3 C-0.67 2.01 -0.34 1.02 0 0 Z " fill="#0F0B0B" transform="translate(109,205)"/>
<path d="M0 0 C6.93 0.33 13.86 0.66 21 1 C21 1.33 21 1.66 21 2 C16.05 2.33 11.1 2.66 6 3 C6.33 3.66 6.66 4.32 7 5 C4.0625 4.1875 4.0625 4.1875 1 3 C0.67 2.01 0.34 1.02 0 0 Z " fill="#9291AE" transform="translate(125,174)"/>
<path d="M0 0 C-1.46748366 3.86882056 -3.25807955 5.29173197 -7 7 C-9.67907714 7.51692769 -12.27314602 7.76891068 -15 8 C-15 7.34 -15 6.68 -15 6 C-13.73160474 5.49384702 -12.46016898 4.99530901 -11.1875 4.5 C-10.12595703 4.08234375 -10.12595703 4.08234375 -9.04296875 3.65625 C-7 3 -7 3 -4 3 C-4 2.34 -4 1.68 -4 1 C-2 0 -2 0 0 0 Z " fill="#234C85" transform="translate(132,145)"/>
<path d="M0 0 C0.33 0.66 0.66 1.32 1 2 C0.67 2.66 0.34 3.32 0 4 C-1.32 4 -2.64 4 -4 4 C-4.33 5.65 -4.66 7.3 -5 9 C-6.65 9 -8.3 9 -10 9 C-9.34 8.67 -8.68 8.34 -8 8 C-8 6.02 -8 4.04 -8 2 C-7.05125 2.04125 -6.1025 2.0825 -5.125 2.125 C-1.89755144 2.34973818 -1.89755144 2.34973818 0 0 Z " fill="#035DA6" transform="translate(139,135)"/>
<path d="M0 0 C1.32 0.33 2.64 0.66 4 1 C3.25 2.9375 3.25 2.9375 2 5 C-0.125 5.75 -0.125 5.75 -2 6 C-2 6.66 -2 7.32 -2 8 C-3.65 8.33 -5.3 8.66 -7 9 C-5.53115269 5.12758436 -3.50293196 4.02801324 0 2 C0 1.34 0 0.68 0 0 Z " fill="#0B4A91" transform="translate(174,96)"/>
<path d="M0 0 C0.763125 0.0825 1.52625 0.165 2.3125 0.25 C1.9825 1.9 1.6525 3.55 1.3125 5.25 C-0.3375 5.25 -1.9875 5.25 -3.6875 5.25 C-4.0175 5.91 -4.3475 6.57 -4.6875 7.25 C-5.0175 6.26 -5.3475 5.27 -5.6875 4.25 C-4.12435347 1.21054842 -3.46963346 0.3227566 0 0 Z " fill="#D3D1D0" transform="translate(204.6875,206.75)"/>
<path d="M0 0 C0.33 0.66 0.66 1.32 1 2 C-1.31 2 -3.62 2 -6 2 C-6 2.99 -6 3.98 -6 5 C-4.35 5 -2.7 5 -1 5 C-1.33 6.32 -1.66 7.64 -2 9 C-3.875 8.875 -3.875 8.875 -6 8 C-7.25 4.9375 -7.25 4.9375 -8 2 C-6.03177114 0.03177114 -2.65191291 0.33751619 0 0 Z " fill="#D3D2D0" transform="translate(197,202)"/>
<path d="M0 0 C2.00720923 0.28674418 4.0085944 0.61866701 6 1 C6 1.99 6 2.98 6 4 C1.375 6.125 1.375 6.125 -2 5 C-1.125 1.125 -1.125 1.125 0 0 Z " fill="#191615" transform="translate(233,200)"/>
<path d="M0 0 C0.66 0 1.32 0 2 0 C2 2.64 2 5.28 2 8 C0.35 8.66 -1.3 9.32 -3 10 C-3.66 8.68 -4.32 7.36 -5 6 C-3.68 5.67 -2.36 5.34 -1 5 C-0.67 3.35 -0.34 1.7 0 0 Z " fill="#1A1A18" transform="translate(210,227)"/>
<path d="M0 0 C1.32 0.66 2.64 1.32 4 2 C4 2.99 4 3.98 4 5 C3.34 5 2.68 5 2 5 C1.67 5.99 1.34 6.98 1 8 C0.01 7.34 -0.98 6.68 -2 6 C-1.67 5.01 -1.34 4.02 -1 3 C-2.32 2.67 -3.64 2.34 -5 2 C-3.35 2 -1.7 2 0 2 C0 1.34 0 0.68 0 0 Z " fill="#1C1C1A" transform="translate(209,203)"/>
<path d="M0 0 C0.66 0.66 1.32 1.32 2 2 C1.34 2 0.68 2 0 2 C0 2.99 0 3.98 0 5 C-3.98196457 6.05404945 -6.98195309 5.84098656 -11 5 C-10.67 4.34 -10.34 3.68 -10 3 C-9.01 3 -8.02 3 -7 3 C-7 2.34 -7 1.68 -7 1 C-6.401875 1.20625 -5.80375 1.4125 -5.1875 1.625 C-2.71549154 2.30671915 -2.71549154 2.30671915 0 0 Z " fill="#2F2E7F" transform="translate(165,168)"/>
<path d="M0 0 C4.875 3.75 4.875 3.75 6 6 C6.99 6.66 7.98 7.32 9 8 C1.25 7.25 1.25 7.25 -1 5 C-0.625 2.375 -0.625 2.375 0 0 Z " fill="#2A3C78" transform="translate(170,140)"/>
<path d="M0 0 C0.33 0.66 0.66 1.32 1 2 C0.67 2.66 0.34 3.32 0 4 C-0.66 4 -1.32 4 -2 4 C-2.1546875 4.86625 -2.1546875 4.86625 -2.3125 5.75 C-3.13546261 8.44333219 -4.00371406 10.00371406 -6 12 C-8.6875 12.25 -8.6875 12.25 -11 12 C-10.236875 11.2575 -9.47375 10.515 -8.6875 9.75 C-6.04428801 7.176446 -6.04428801 7.176446 -4.3125 4.6875 C-3.879375 4.130625 -3.44625 3.57375 -3 3 C-2.34 3 -1.68 3 -1 3 C-0.67 2.01 -0.34 1.02 0 0 Z " fill="#CDE3F2" transform="translate(141,137)"/>
<path d="M0 0 C1.25541557 3.76624671 0.37061958 5.37188934 -1 9 C-1.66 9 -2.32 9 -3 9 C-3.33 9.99 -3.66 10.98 -4 12 C-4.99 11.67 -5.98 11.34 -7 11 C-4.69 7.37 -2.38 3.74 0 0 Z " fill="#2F5F94" transform="translate(162,129)"/>
<path d="M0 0 C0.33 0.99 0.66 1.98 1 3 C0.34 3 -0.32 3 -1 3 C-0.67 2.01 -0.34 1.02 0 0 Z M-4 0 C-2.4375 1.1875 -2.4375 1.1875 -1 3 C-1.3125 5.6875 -1.3125 5.6875 -2 8 C-2.66 8 -3.32 8 -4 8 C-4.33 7.01 -4.66 6.02 -5 5 C-5.66 4.67 -6.32 4.34 -7 4 C-6.67 3.01 -6.34 2.02 -6 1 C-5.34 0.67 -4.68 0.34 -4 0 Z " fill="#224D94" transform="translate(179,114)"/>
<path d="M0 0 C1.4589426 0.47730838 2.91713496 0.95691042 4.375 1.4375 C5.18710938 1.70433594 5.99921875 1.97117188 6.8359375 2.24609375 C9 3 9 3 11 4 C10.6875 5.9375 10.6875 5.9375 10 8 C9.01 8.33 8.02 8.66 7 9 C6.67 7.02 6.34 5.04 6 3 C5.195625 2.87625 4.39125 2.7525 3.5625 2.625 C2.716875 2.41875 1.87125 2.2125 1 2 C0.67 1.34 0.34 0.68 0 0 Z " fill="#878684" transform="translate(245,206)"/>
<path d="M0 0 C0.33 0.99 0.66 1.98 1 3 C0.01 3.33 -0.98 3.66 -2 4 C-2 4.66 -2 5.32 -2 6 C-3.98 6 -5.96 6 -8 6 C-8.33 5.34 -8.66 4.68 -9 4 C-6.03 2.68 -3.06 1.36 0 0 Z " fill="#182167" transform="translate(184,141)"/>
<path d="M0 0 C1.0625 1.8125 1.0625 1.8125 2 4 C1.67 4.99 1.34 5.98 1 7 C-1.475 6.01 -1.475 6.01 -4 5 C-4 4.34 -4 3.68 -4 3 C-4.66 3 -5.32 3 -6 3 C-6 2.34 -6 1.68 -6 1 C-4.7934375 1.0309375 -4.7934375 1.0309375 -3.5625 1.0625 C-1.06645115 1.29633621 -1.06645115 1.29633621 0 0 Z " fill="#1C3D89" transform="translate(173,136)"/>
<path d="M0 0 C4.29 0 8.58 0 13 0 C13 0.66 13 1.32 13 2 C12.34 2 11.68 2 11 2 C10.67 2.99 10.34 3.98 10 5 C9.67 4.01 9.34 3.02 9 2 C6.36 2 3.72 2 1 2 C0.67 1.34 0.34 0.68 0 0 Z " fill="#0C67A6" transform="translate(131,129)"/>
<path d="M0 0 C1.9375 0.375 1.9375 0.375 4 1 C4.33 1.66 4.66 2.32 5 3 C2.6603331 4.16983345 1.16608473 4.1661241 -1.4375 4.1875 C-2.61119141 4.20876953 -2.61119141 4.20876953 -3.80859375 4.23046875 C-6 4 -6 4 -9 2 C-6.03 2 -3.06 2 0 2 C0 1.34 0 0.68 0 0 Z " fill="#8D8D8B" transform="translate(131,233)"/>
<path d="M0 0 C0.33 0 0.66 0 1 0 C1.33 3.3 1.66 6.6 2 10 C5.96 10.99 5.96 10.99 10 12 C10 12.33 10 12.66 10 13 C6.7 13.33 3.4 13.66 0 14 C0 9.38 0 4.76 0 0 Z " fill="#282623" transform="translate(52,206)"/>
<path d="M0 0 C2.97 0.495 2.97 0.495 6 1 C6 1.99 6 2.98 6 4 C2.04 4 -1.92 4 -6 4 C-6 3.67 -6 3.34 -6 3 C-5.195625 2.87625 -4.39125 2.7525 -3.5625 2.625 C-2.716875 2.41875 -1.87125 2.2125 -1 2 C-0.67 1.34 -0.34 0.68 0 0 Z " fill="#1B1916" transform="translate(238,211)"/>
<path d="M0 0 C2.97 0 5.94 0 9 0 C7.68 0.33 6.36 0.66 5 1 C5 6.28 5 11.56 5 17 C4.67 17 4.34 17 4 17 C3.96261719 16.02417969 3.92523438 15.04835937 3.88671875 14.04296875 C3.82097656 12.77066406 3.75523438 11.49835938 3.6875 10.1875 C3.62949219 8.92292969 3.57148437 7.65835938 3.51171875 6.35546875 C3.2934145 2.70099298 3.2934145 2.70099298 0 0 Z " fill="#181413" transform="translate(122,203)"/>
<path d="M0 0 C5.28 0 10.56 0 16 0 C16 0.33 16 0.66 16 1 C13.69 1 11.38 1 9 1 C9 1.66 9 2.32 9 3 C7.02 3 5.04 3 3 3 C3 2.34 3 1.68 3 1 C2.01 0.67 1.02 0.34 0 0 Z " fill="#153977" transform="translate(108,150)"/>
<path d="M0 0 C0.66 0 1.32 0 2 0 C1.59791618 5.62917348 -0.28930302 8.00386479 -4 12 C-4.33 11.34 -4.66 10.68 -5 10 C-4.67 9.01 -4.34 8.02 -4 7 C-3.34 7 -2.68 7 -2 7 C-1.34 4.69 -0.68 2.38 0 0 Z " fill="#1A3B78" transform="translate(161,142)"/>
<path d="M0 0 C0.99 0 1.98 0 3 0 C3 2.97 3 5.94 3 9 C2.01 9 1.02 9 0 9 C0 6.03 0 3.06 0 0 Z " fill="#090705" transform="translate(95,228)"/>
<path d="M0 0 C2.31 0.33 4.62 0.66 7 1 C7 1.33 7 1.66 7 2 C5.02 2 3.04 2 1 2 C1 2.99 1 3.98 1 5 C2.98 5 4.96 5 7 5 C7 5.33 7 5.66 7 6 C-0.42857143 6.14285714 -0.42857143 6.14285714 -4 5 C-4 4.34 -4 3.68 -4 3 C-2.68 2.67 -1.36 2.34 0 2 C0 1.34 0 0.68 0 0 Z " fill="#B3B1AF" transform="translate(87,223)"/>
<path d="M0 0 C0.66 0 1.32 0 2 0 C2 1.98 2 3.96 2 6 C-1.465 7.485 -1.465 7.485 -5 9 C-3.50079488 5.88626628 -1.91847864 2.87771795 0 0 Z " fill="#C5D5EC" transform="translate(167,139)"/>
<path d="M0 0 C1.32 0.33 2.64 0.66 4 1 C4.33 2.98 4.66 4.96 5 7 C4.01 7 3.02 7 2 7 C2 6.34 2 5.68 2 5 C0.68 4.67 -0.64 4.34 -2 4 C-1.34 2.68 -0.68 1.36 0 0 Z " fill="#201C1A" transform="translate(247,208)"/>
<path d="M0 0 C0 2.97 0 5.94 0 9 C-0.99 9.33 -1.98 9.66 -3 10 C-3 7.03 -3 4.06 -3 1 C-1 0 -1 0 0 0 Z " fill="#0C0806" transform="translate(98,215)"/>
<path d="M0 0 C0.99 0 1.98 0 3 0 C3 2.31 3 4.62 3 7 C0.03 7 -2.94 7 -6 7 C-6 5.68 -6 4.36 -6 3 C-5.236875 3.309375 -4.47375 3.61875 -3.6875 3.9375 C-1.81210323 4.67893593 0.08684652 5.36228217 2 6 C2 4.35 2 2.7 2 1 C1.34 0.67 0.68 0.34 0 0 Z " fill="#AFADAC" transform="translate(201,214)"/>
<path d="M0 0 C2.475 0.495 2.475 0.495 5 1 C5 1.66 5 2.32 5 3 C4.34 3 3.68 3 3 3 C3 4.32 3 5.64 3 7 C2.01 7 1.02 7 0 7 C0 4.69 0 2.38 0 0 Z " fill="#0E0C0B" transform="translate(95,200)"/>
<path d="M0 0 C0.33 0 0.66 0 1 0 C1.29341888 5.67276511 1.00559652 8.99067246 -2 14 C-3.39777075 11.2044585 -2.70402042 9.47934015 -2.125 6.4375 C-1.94195312 5.44621094 -1.75890625 4.45492187 -1.5703125 3.43359375 C-1 1 -1 1 0 0 Z " fill="#8885B5" transform="translate(205,136)"/>
<path d="M0 0 C0.99 0.33 1.98 0.66 3 1 C2.67 3.97 2.34 6.94 2 10 C1.34 10 0.68 10 0 10 C0 6.7 0 3.4 0 0 Z " fill="#110C0B" transform="translate(182,200)"/>
<path d="M0 0 C0.33 0 0.66 0 1 0 C1 3.3 1 6.6 1 10 C-0.65 8.35 -2.3 6.7 -4 5 C-3.34 4.67 -2.68 4.34 -2 4 C-0.86649466 1.98330173 -0.86649466 1.98330173 0 0 Z " fill="#2E2E2D" transform="translate(140,214)"/>
<path d="M0 0 C-1 1 -1 1 -3.72265625 1.09765625 C-5.37587891 1.08025391 -5.37587891 1.08025391 -7.0625 1.0625 C-8.71958984 1.04896484 -8.71958984 1.04896484 -10.41015625 1.03515625 C-11.26480469 1.02355469 -12.11945313 1.01195312 -13 1 C-13.33 2.32 -13.66 3.64 -14 5 C-14.66 4.01 -15.32 3.02 -16 2 C-13.34549733 -0.65450267 -11.69774614 -0.41639121 -8 -0.6875 C-6.9275 -0.77386719 -5.855 -0.86023438 -4.75 -0.94921875 C-2 -1 -2 -1 0 0 Z " fill="#CECDE2" transform="translate(138,171)"/>
<path d="M0 0 C0.99 0.33 1.98 0.66 3 1 C-0.75 7.875 -0.75 7.875 -3 9 C-3.33 8.01 -3.66 7.02 -4 6 C-3.34 6 -2.68 6 -2 6 C-1.34 4.02 -0.68 2.04 0 0 Z " fill="#DBEAF8" transform="translate(157,132)"/>
<path d="M0 0 C0.66 0 1.32 0 2 0 C1.67 1.32 1.34 2.64 1 4 C0.34 4 -0.32 4 -1 4 C-1.28875 4.78375 -1.5775 5.5675 -1.875 6.375 C-3 9 -3 9 -5 11 C-4.5020163 7.26512223 -4.12508244 5.18762365 -2 2 C-1.34 2 -0.68 2 0 2 C0 1.34 0 0.68 0 0 Z " fill="#296796" transform="translate(144,129)"/>
<path d="M0 0 C3.24271506 0.5590888 4.93057424 1.4132178 7 4 C7 4.66 7 5.32 7 6 C6.34 6 5.68 6 5 6 C4.67 6.66 4.34 7.32 4 8 C2 6 2 6 1.875 3.375 C1.91625 2.59125 1.9575 1.8075 2 1 C1.34 0.67 0.68 0.34 0 0 Z " fill="#1E2369" transform="translate(189,90)"/>
<path d="M0 0 C2.31 0 4.62 0 7 0 C7.33 0.99 7.66 1.98 8 3 C5.03 3 2.06 3 -1 3 C-0.67 2.01 -0.34 1.02 0 0 Z " fill="#1D1918" transform="translate(150,232)"/>
<path d="M0 0 C0.66 0 1.32 0 2 0 C2 0.66 2 1.32 2 2 C2.99 1.67 3.98 1.34 5 1 C5.66 2.32 6.32 3.64 7 5 C7.99 5 8.98 5 10 5 C10 5.66 10 6.32 10 7 C8.35 6.67 6.7 6.34 5 6 C5 5.34 5 4.68 5 4 C4.360625 3.896875 3.72125 3.79375 3.0625 3.6875 C2.381875 3.460625 1.70125 3.23375 1 3 C0.67 2.01 0.34 1.02 0 0 Z " fill="#3C5785" transform="translate(101,146)"/>
<path d="M0 0 C2 3 2 3 2 5 C1.34 5 0.68 5 0 5 C0 5.66 0 6.32 0 7 C-1.65 7 -3.3 7 -5 7 C-3.35 4.69 -1.7 2.38 0 0 Z " fill="#2B528E" transform="translate(154,141)"/>
<path d="M0 0 C0.33 0.66 0.66 1.32 1 2 C1.66 2.165 2.32 2.33 3 2.5 C3.66 2.665 4.32 2.83 5 3 C5.33 3.66 5.66 4.32 6 5 C6.99 5.66 7.98 6.32 9 7 C7.35 7.33 5.7 7.66 4 8 C4 7.01 4 6.02 4 5 C2.68 4.67 1.36 4.34 0 4 C0 2.68 0 1.36 0 0 Z " fill="#5E5C58" transform="translate(240,207)"/>
<path d="M0 0 C2.0625 0.4375 2.0625 0.4375 4 1 C2.52307692 5.67692308 2.52307692 5.67692308 -0.125 7.3125 C-1.053125 7.6528125 -1.053125 7.6528125 -2 8 C-2 7.34 -2 6.68 -2 6 C-1.34 5.67 -0.68 5.34 0 5 C-0.2784375 4.0409375 -0.2784375 4.0409375 -0.5625 3.0625 C-0.7790625 2.0415625 -0.7790625 2.0415625 -1 1 C-0.67 0.67 -0.34 0.34 0 0 Z " fill="#555250" transform="translate(230,204)"/>
<path d="M0 0 C-7.28571429 3.42857143 -7.28571429 3.42857143 -12 3 C-8.66305069 -1.03946495 -4.8800129 -1.62667097 0 0 Z " fill="#9795BE" transform="translate(176,178)"/>
<path d="M0 0 C2 1 2 1 4 4 C2.02 4.33 0.04 4.66 -2 5 C-2.33 4.01 -2.66 3.02 -3 2 C-2.01 1.34 -1.02 0.68 0 0 Z " fill="#FBFCF9" transform="translate(145,169)"/>
<path d="M0 0 C0.66 0 1.32 0 2 0 C2 2.31 2 4.62 2 7 C0.68 7.33 -0.64 7.66 -2 8 C-2.125 5.125 -2.125 5.125 -2 2 C-1.34 1.34 -0.68 0.68 0 0 Z " fill="#21699F" transform="translate(101,108)"/>
<path d="M0 0 C-4.625 4 -4.625 4 -8 4 C-8 3.01 -8 2.02 -8 1 C-2.25 -1.125 -2.25 -1.125 0 0 Z " fill="#1C1B5B" transform="translate(187,169)"/>
<path d="M0 0 C1.485 0.99 1.485 0.99 3 2 C3 2.66 3 3.32 3 4 C4.98 4.66 6.96 5.32 9 6 C9 6.33 9 6.66 9 7 C5.625 6.6875 5.625 6.6875 2 6 C0 3 0 3 0 0 Z " fill="#14205F" transform="translate(111,160)"/>
<path d="M0 0 C0.99 0 1.98 0 3 0 C3.66 2.64 4.32 5.28 5 8 C0.125 4.375 0.125 4.375 -1 1 C-0.67 0.67 -0.34 0.34 0 0 Z " fill="#5C679D" transform="translate(108,158)"/>
<path d="M0 0 C0 1.32 0 2.64 0 4 C-0.66 4 -1.32 4 -2 4 C-2.33 4.99 -2.66 5.98 -3 7 C-3.66 5.35 -4.32 3.7 -5 2 C-2 0 -2 0 0 0 Z " fill="#130D60" transform="translate(198,152)"/>
<path d="M0 0 C1.25541557 3.76624671 0.37061958 5.37188934 -1 9 C-1.66 9 -2.32 9 -3 9 C-3.33 8.01 -3.66 7.02 -4 6 C-3.34 6 -2.68 6 -2 6 C-1.855625 5.195625 -1.71125 4.39125 -1.5625 3.5625 C-1 1 -1 1 0 0 Z " fill="#1C196D" transform="translate(202,122)"/>
<path d="M0 0 C0.66 0.33 1.32 0.66 2 1 C0.68 1.33 -0.64 1.66 -2 2 C-2 2.99 -2 3.98 -2 5 C-3.98 5.33 -5.96 5.66 -8 6 C-3.375 1.125 -3.375 1.125 0 0 Z " fill="#455D8B" transform="translate(184,108)"/>
<path d="M0 0 C0.66 0 1.32 0 2 0 C2 1.32 2 2.64 2 4 C0.02 4.66 -1.96 5.32 -4 6 C-1.125 1.125 -1.125 1.125 0 0 Z " fill="#121110" transform="translate(85,221)"/>
<path d="M0 0 C2.97 0 5.94 0 9 0 C8.67 0.66 8.34 1.32 8 2 C4.71585695 2.95067299 3.30306592 3.10102197 0 2 C0 1.34 0 0.68 0 0 Z " fill="#143079" transform="translate(119,160)"/>
<path d="M0 0 C4.42857143 5.14285714 4.42857143 5.14285714 5 9 C4.34 9 3.68 9 3 9 C3 8.34 3 7.68 3 7 C2.34 7 1.68 7 1 7 C0.67 4.69 0.34 2.38 0 0 Z " fill="#133574" transform="translate(100,139)"/>
<path d="M0 0 C0.33 1.98 0.66 3.96 1 6 C-0.9375 5.1875 -0.9375 5.1875 -3 4 C-3.33 3.01 -3.66 2.02 -4 1 C-2 0 -2 0 0 0 Z " fill="#1D3284" transform="translate(188,93)"/>
<path d="M0 0 C-1.65 1.32 -3.3 2.64 -5 4 C-5 3.34 -5 2.68 -5 2 C-6.32 2.33 -7.64 2.66 -9 3 C-7 0 -7 0 -4.5 -0.75 C-2 -1 -2 -1 0 0 Z " fill="#4E86B4" transform="translate(130,79)"/>
<path d="M0 0 C0.66 0.99 1.32 1.98 2 3 C2.99 3.66 3.98 4.32 5 5 C3.02 5.99 3.02 5.99 1 7 C-0.0625 5.1875 -0.0625 5.1875 -1 3 C-0.67 2.01 -0.34 1.02 0 0 Z " fill="#8E8C8D" transform="translate(198,231)"/>
<path d="M0 0 C1.32 0.33 2.64 0.66 4 1 C4.33 3.31 4.66 5.62 5 8 C4.01 7.67 3.02 7.34 2 7 C2 5.02 2 3.04 2 1 C1.34 0.67 0.68 0.34 0 0 Z " fill="#423E3D" transform="translate(194,223)"/>
<path d="M0 0 C0.66 0.33 1.32 0.66 2 1 C2 1.66 2 2.32 2 3 C2.66 3.33 3.32 3.66 4 4 C3.34 4 2.68 4 2 4 C2 4.66 2 5.32 2 6 C-0.64 6 -3.28 6 -6 6 C-6 5.67 -6 5.34 -6 5 C-4.02 4.67 -2.04 4.34 0 4 C0 2.68 0 1.36 0 0 Z " fill="#403D3A" transform="translate(105,222)"/>
<path d="M0 0 C0.66 0 1.32 0 2 0 C1.34 2.31 0.68 4.62 0 7 C-0.66 7 -1.32 7 -2 7 C-2 5.68 -2 4.36 -2 3 C-2.66 2.67 -3.32 2.34 -4 2 C-3.01 2 -2.02 2 -1 2 C-0.67 1.34 -0.34 0.68 0 0 Z " fill="#7C7A78" transform="translate(211,208)"/>
<path d="M0 0 C2.97 0.495 2.97 0.495 6 1 C6 1.99 6 2.98 6 4 C4.68 4.33 3.36 4.66 2 5 C1.34 3.35 0.68 1.7 0 0 Z " fill="#343C6E" transform="translate(105,154)"/>
<path d="M0 0 C2.93453261 0.36681658 3.86437246 0.86437246 6 3 C5.67 3.66 5.34 4.32 5 5 C4.34 5 3.68 5 3 5 C3 4.34 3 3.68 3 3 C1.35 2.67 -0.3 2.34 -2 2 C-1.34 1.34 -0.68 0.68 0 0 Z " fill="#312F6D" transform="translate(194,125)"/>
<path d="M0 0 C2.3828125 0.0234375 2.3828125 0.0234375 5.125 0.375 C6.03507813 0.48585938 6.94515625 0.59671875 7.8828125 0.7109375 C8.93082031 0.85402344 8.93082031 0.85402344 10 1 C10 1.33 10 1.66 10 2 C7.03 2 4.06 2 1 2 C0.67 3.32 0.34 4.64 0 6 C0 5.01 0 4.02 0 3 C-0.66 2.67 -1.32 2.34 -2 2 C-1.34 1.34 -0.68 0.68 0 0 Z " fill="#1C7EB7" transform="translate(131,123)"/>
<path d="M0 0 C2 1 2 1 3 3 C2.67 3.66 2.34 4.32 2 5 C2.66 5.33 3.32 5.66 4 6 C3.01 6 2.02 6 1 6 C1 5.34 1 4.68 1 4 C0.34 4 -0.32 4 -1 4 C-1 4.66 -1 5.32 -1 6 C-1.66 5.67 -2.32 5.34 -3 5 C-2.01 3.35 -1.02 1.7 0 0 Z " fill="#335891" transform="translate(170,118)"/>
<path d="M0 0 C1.670625 0.061875 1.670625 0.061875 3.375 0.125 C2.25 1.6875 2.25 1.6875 0.375 3.125 C-2.8125 2.8125 -2.8125 2.8125 -5.625 2.125 C-3.625 0.125 -3.625 0.125 0 0 Z " fill="#34397A" transform="translate(191.625,106.875)"/>
<path d="M0 0 C1.65 0.33 3.3 0.66 5 1 C5 1.66 5 2.32 5 3 C2.69 3.33 0.38 3.66 -2 4 C-1.34 2.68 -0.68 1.36 0 0 Z " fill="#AEADAF" transform="translate(158,233)"/>
<path d="M0 0 C1.65 0 3.3 0 5 0 C5.33 0.99 5.66 1.98 6 3 C5.01 3 4.02 3 3 3 C3 3.66 3 4.32 3 5 C2.34 5 1.68 5 1 5 C0.67 3.35 0.34 1.7 0 0 Z " fill="#191817" transform="translate(221,232)"/>
<path d="M0 0 C0.99 0.33 1.98 0.66 3 1 C2 3 1 5 0 7 C-0.66 6.67 -1.32 6.34 -2 6 C-1.34 4.02 -0.68 2.04 0 0 Z " fill="#686398" transform="translate(193,159)"/>
<path d="" fill="#F0F0EE" transform="translate(0,0)"/>
</svg>
